<svg width="57" height="57" viewBox="0 0 57 57" fill="none" xmlns="http://www.w3.org/2000/svg">
<path d="M28.5 35.5088C24.517 35.5088 17.0847 37.7138 17.0847 41.9278C17.0847 43.7565 18.1837 45.4085 19.953 46.238C21.9935 47.1953 25.1977 47.7588 28.5122 47.7588C31.5205 47.7588 34.6162 47.295 37.0172 46.2433C38.7795 45.4715 39.917 43.7775 39.917 41.9278C39.9152 37.7138 32.483 35.5088 28.5 35.5088ZM16.5317 34.24C15.1615 33.918 13.8262 33.75 12.75 33.75C8.75997 33.75 1.33997 35.955 1.33997 40.1725C1.33997 42.0275 2.47747 43.725 4.22747 44.495C7.35297 45.853 11.1487 46.042 13.352 45.9948C13.9557 45.9825 14.346 45.3735 14.129 44.81C13.7807 43.9018 13.59 42.9305 13.59 41.9225C13.59 39.343 14.9042 37.313 16.831 35.7993C17.412 35.3408 17.2527 34.4098 16.5317 34.24ZM44.25 33.75C43.1737 33.75 41.8385 33.918 40.4682 34.24C39.7472 34.4098 39.5862 35.3408 40.169 35.7993C42.0957 37.3148 43.41 39.343 43.41 41.9225C43.41 42.9288 43.221 43.9018 42.871 44.81C42.654 45.3735 43.0442 45.9825 43.648 45.9948C45.8512 46.042 49.647 45.8548 52.7725 44.495C54.5225 43.725 55.66 42.0275 55.66 40.1725C55.66 35.955 48.24 33.75 44.25 33.75ZM28.5 21.5C27.6956 21.5 26.8991 21.6584 26.156 21.9662C25.4129 22.274 24.7377 22.7252 24.1689 23.294C23.6002 23.8627 23.149 24.5379 22.8412 25.2811C22.5334 26.0242 22.375 26.8207 22.375 27.625C22.375 28.4293 22.5334 29.2258 22.8412 29.9689C23.149 30.7121 23.6002 31.3873 24.1689 31.956C24.7377 32.5248 25.4129 32.976 26.156 33.2838C26.8991 33.5916 27.6956 33.75 28.5 33.75C29.3043 33.75 30.1008 33.5916 30.8439 33.2838C31.587 32.976 32.2622 32.5248 32.831 31.956C33.3998 31.3873 33.8509 30.7121 34.1587 29.9689C34.4665 29.2258 34.625 28.4293 34.625 27.625C34.625 26.8207 34.4665 26.0242 34.1587 25.2811C33.8509 24.5379 33.3998 23.8627 32.831 23.294C32.2622 22.7252 31.587 22.274 30.8439 21.9662C30.1008 21.6584 29.3043 21.5 28.5 21.5ZM21.5 9.25C20.1076 9.25 18.7722 9.80312 17.7877 10.7877C16.8031 11.7723 16.25 13.1076 16.25 14.5C16.25 15.8924 16.8031 17.2277 17.7877 18.2123C18.7722 19.1969 20.1076 19.75 21.5 19.75C22.8924 19.75 24.2277 19.1969 25.2123 18.2123C26.1968 17.2277 26.75 15.8924 26.75 14.5C26.75 13.1076 26.1968 11.7723 25.2123 10.7877C24.2277 9.80312 22.8924 9.25 21.5 9.25ZM35.5 9.25C34.1076 9.25 32.7722 9.80312 31.7877 10.7877C30.8031 11.7723 30.25 13.1076 30.25 14.5C30.25 15.8924 30.8031 17.2277 31.7877 18.2123C32.7722 19.1969 34.1076 19.75 35.5 19.75C36.8923 19.75 38.2277 19.1969 39.2123 18.2123C40.1968 17.2277 40.75 15.8924 40.75 14.5C40.75 13.1076 40.1968 11.7723 39.2123 10.7877C38.2277 9.80312 36.8923 9.25 35.5 9.25ZM44.25 19.75C43.4456 19.75 42.6491 19.9084 41.906 20.2162C41.1629 20.524 40.4877 20.9752 39.9189 21.544C39.3502 22.1127 38.899 22.7879 38.5912 23.5311C38.2834 24.2742 38.125 25.0707 38.125 25.875C38.125 26.6793 38.2834 27.4758 38.5912 28.2189C38.899 28.9621 39.3502 29.6373 39.9189 30.206C40.4877 30.7748 41.1629 31.226 41.906 31.5338C42.6491 31.8416 43.4456 32 44.25 32C45.0543 32 45.8508 31.8416 46.5939 31.5338C47.337 31.226 48.0122 30.7748 48.581 30.206C49.1498 29.6373 49.6009 28.9621 49.9087 28.2189C50.2165 27.4758 50.375 26.6793 50.375 25.875C50.375 25.0707 50.2165 24.2742 49.9087 23.5311C49.6009 22.7879 49.1498 22.1127 48.581 21.544C48.0122 20.9752 47.337 20.524 46.5939 20.2162C45.8508 19.9084 45.0543 19.75 44.25 19.75ZM12.75 19.75C11.9456 19.75 11.1491 19.9084 10.406 20.2162C9.66291 20.524 8.98769 20.9752 8.41894 21.544C7.85018 22.1127 7.39901 22.7879 7.0912 23.5311C6.78339 24.2742 6.62497 25.0707 6.62497 25.875C6.62497 26.6793 6.78339 27.4758 7.0912 28.2189C7.39901 28.9621 7.85018 29.6373 8.41894 30.206C8.98769 30.7748 9.66291 31.226 10.406 31.5338C11.1491 31.8416 11.9456 32 12.75 32C13.5543 32 14.3508 31.8416 15.0939 31.5338C15.837 31.226 16.5122 30.7748 17.081 30.206C17.6498 29.6373 18.1009 28.9621 18.4087 28.2189C18.7165 27.4758 18.875 26.6793 18.875 25.875C18.875 25.0707 18.7165 24.2742 18.4087 23.5311C18.1009 22.7879 17.6498 22.1127 17.081 21.544C16.5122 20.9752 15.837 20.524 15.0939 20.2162C14.3508 19.9084 13.5543 19.75 12.75 19.75Z" fill="#2772D7"/>
</svg>
