<svg width="56" height="56" viewBox="0 0 56 56" fill="none" xmlns="http://www.w3.org/2000/svg">
<path d="M27.9384 3.5C21.5054 3.535 16.0419 8.79413 15.7636 15.2236C15.5081 21.1526 18.8711 27.2313 24.5376 31.083C24.7931 31.258 25.0543 31.4278 25.3203 31.5923C26.1375 32.0945 27.0706 32.3442 28.0068 32.3442C29.0148 32.3442 30.0267 32.0552 30.9087 31.4795C35.4079 28.5447 40.25 22.3703 40.25 15.7466C40.25 12.4636 38.9681 9.38194 36.6406 7.06494C34.3253 4.76544 31.2636 3.5 28.0034 3.5H27.9384ZM27.9966 12.1475C29.9863 12.1475 31.6025 13.7603 31.6025 15.75C31.6025 17.7397 29.9863 19.3525 27.9966 19.3525C26.0068 19.3525 24.394 17.7397 24.394 15.75C24.394 13.7603 26.0068 12.1475 27.9966 12.1475ZM43.6611 17.4111C42.9786 24.6911 37.87 31.1153 32.8125 34.4053C31.3775 35.3503 29.715 35.8408 28 35.8408C26.4075 35.8408 24.8323 35.4025 23.4848 34.5625C23.1698 34.3875 22.8736 34.1778 22.5586 33.9678C17.3611 30.4503 13.8083 25.2513 12.6533 19.7388C12.1633 19.9663 11.7065 20.2316 11.269 20.4941C7.50651 22.7866 5.37247 26.3725 5.24997 30.625C5.12747 35.4375 7.66552 40.3018 11.9355 43.4868C12.4255 47.0568 14.2107 49.8926 16.8882 51.3276C18.2182 52.0451 19.6865 52.394 21.3315 52.394C23.8515 52.394 26.759 51.5387 29.979 49.8237C34.599 51.1537 38.7447 50.9235 41.7197 49.2085C43.8197 48.0185 45.2883 46.0778 46.0058 43.5928C47.2308 42.7003 49.8569 40.4432 50.6269 37.0132C51.1694 34.6157 50.7157 32.1491 49.2632 29.6816C50.7682 26.6716 51.0811 24.081 50.2236 21.981C48.9811 18.9535 45.7625 18.0068 44.625 17.6743C44.31 17.5868 43.9936 17.4986 43.6611 17.4111ZM22.75 39.8125C23.9575 39.8125 24.9375 40.7925 24.9375 42C24.9375 43.2075 23.9575 44.1875 22.75 44.1875C21.5425 44.1875 20.5625 43.2075 20.5625 42C20.5625 40.7925 21.5425 39.8125 22.75 39.8125Z" fill="#2772D7"/>
</svg>
