<svg width="57" height="56" viewBox="0 0 57 56" fill="none" xmlns="http://www.w3.org/2000/svg">
<g clip-path="url(#clip0_348_1712)">
<path d="M28.2471 10.5205C27.5891 10.615 12.0564 12.9587 1.18018 21.3657C0.751426 21.6964 0.5 22.2074 0.5 22.7499C0.5 23.2924 0.751426 23.8035 1.18018 24.1342C12.0582 32.5412 27.5908 34.8849 28.2471 34.9794C28.3293 34.9917 28.416 34.9999 28.5 34.9999C28.584 34.9999 28.6689 34.9917 28.7529 34.9794C29.3548 34.8912 42.4627 32.8976 53.0239 26.0859C53.0052 27.3317 52.96 28.7806 52.8257 30.4472C52.5518 33.8462 51.8951 37.7706 50.7134 40.79C49.7535 40.9458 48.8815 41.5454 48.4233 42.4853C47.6743 44.0218 47.3765 47.1406 49.1685 48.0156C50.9605 48.8906 53.2388 46.7357 53.9878 45.1992C54.4558 44.2402 54.3854 43.1572 53.8921 42.2973C55.3965 38.6612 56.0203 34.3896 56.3154 30.7275C56.669 26.3402 56.5071 22.9103 56.5 22.7636C56.5 22.759 56.5 22.7545 56.5 22.7499C56.5 22.7429 56.4967 22.7364 56.4966 22.7294V22.6645C56.4925 22.5587 56.4787 22.4534 56.4556 22.35V22.3466C56.4002 22.0984 56.2914 21.8653 56.1367 21.6634C55.9821 21.4615 55.7853 21.2958 55.5601 21.1777C44.6977 12.9295 29.4041 10.6142 28.7529 10.5205C28.5849 10.496 28.4151 10.496 28.2471 10.5205ZM9.86182 33.1611C10.4568 35.8036 11.6491 39.1463 13.9941 42.1913C14.0816 42.2963 14.166 42.4012 14.271 42.4887C14.516 42.6812 20.2575 47.2499 28.5 47.2499C36.7425 47.2499 42.484 42.6812 42.729 42.4887C42.834 42.4012 42.9184 42.2963 43.0059 42.1913C45.3509 39.1463 46.5432 35.8036 47.1382 33.1611C38.1607 37.0986 29.742 38.3787 29.252 38.4487C29.007 38.4837 28.745 38.4999 28.5 38.4999C28.255 38.4999 27.993 38.4837 27.748 38.4487C27.258 38.3787 18.8393 37.0986 9.86182 33.1611Z" fill="#2772D7"/>
</g>
<defs>
<clipPath id="clip0_348_1712">
<rect width="56" height="56" fill="white" transform="translate(0.5)"/>
</clipPath>
</defs>
</svg>
