<svg width="57" height="57" viewBox="0 0 57 57" fill="none" xmlns="http://www.w3.org/2000/svg">
<path d="M20.6113 5.75C15.4926 5.75 8.375 10.16 8.375 14.5C8.375 18.84 15.4926 23.25 20.6113 23.25C25.4361 23.25 29.3613 19.3247 29.3613 14.5C29.3613 9.67525 25.4361 5.75 20.6113 5.75ZM40.7739 11C36.9274 11 33.7944 14.1296 33.7944 17.9761C33.7944 21.8226 36.9274 24.9556 40.7739 24.9556C44.6204 24.9556 47.75 21.8243 47.75 17.9761C47.75 14.1296 44.6204 11 40.7739 11ZM20.6079 25.3862C14.9729 25.3862 3.98291 28.5526 3.98291 34.3276C3.98291 36.7776 5.46863 39.0011 7.84863 40.1211C8.39113 40.3661 8.98873 40.6084 9.63623 40.8184C9.81123 38.9984 10.0904 37.8442 10.1079 37.7217L10.5283 36.0605C10.6508 35.5355 11.0364 35.0986 11.5264 34.8711L13.0986 34.1875C13.8686 33.855 17.9461 32.1914 22.7236 32.1914C24.8061 32.1914 26.75 32.5253 28.5 33.1553C30.25 32.5253 32.1939 32.1914 34.2764 32.1914C39.0539 32.1914 43.1284 33.855 43.8809 34.1875L45.4736 34.8711C45.9636 35.0986 46.3492 35.518 46.4717 36.0605L46.8921 37.7217C46.9096 37.8267 47.1037 38.615 47.2612 39.875C48.2237 39.6475 49.1321 39.3504 49.9546 38.9829C51.8271 38.1604 53.0171 36.3761 53.0171 34.4336C53.0171 29.9536 45.0371 27.6079 40.7671 27.6079C38.7896 27.6079 36.0415 28.0976 33.644 29.0776C29.934 26.6626 24.1954 25.3862 20.6079 25.3862ZM22.0503 35.7153C18.1008 35.867 14.7271 37.3022 14.5 37.3901C14.01 37.6176 13.642 38.0546 13.502 38.5796C11.9392 45.6146 14.3628 51.6712 15.187 53.3896C15.3305 53.6889 15.6406 53.875 15.9731 53.875H25.875C26.358 53.875 26.75 53.483 26.75 53V36.9458C26.75 36.5468 26.4839 36.1858 26.0972 36.0913C24.7475 35.7597 23.3668 35.6648 22.0503 35.7153ZM34.9497 35.7153C33.6332 35.6648 32.2525 35.7563 30.9028 36.0879C30.5161 36.1841 30.25 36.5468 30.25 36.9458V53C30.25 53.483 30.642 53.875 31.125 53.875H41.0269C41.3594 53.875 41.6677 53.6906 41.813 53.3896C42.6372 51.6712 45.0608 45.6146 43.498 38.5796C43.358 38.0546 42.99 37.6142 42.5 37.3867C42.2729 37.2988 38.8992 35.867 34.9497 35.7153Z" fill="#2772D7"/>
</svg>
