<svg width="49" height="48" viewBox="0 0 49 48" fill="none" xmlns="http://www.w3.org/2000/svg">
<path d="M24.5 4.5C13.7482 4.5 5 13.2482 5 24C5 34.7518 13.7482 43.5 24.5 43.5C35.2518 43.5 44 34.7518 44 24C44 13.2482 35.2518 4.5 24.5 4.5ZM24.5 7.5C26.5469 7.5 28.497 7.88884 30.3037 8.56641C29.9438 10.2998 28.911 12.7523 25.9092 13.5C24.5142 13.845 23.0146 14.3395 23.0146 16.3945C23.0146 16.3945 22.745 18.99 20 19.5C21.89 21.075 21.5 23.5488 21.5 23.5488C28.97 23.2638 29.7646 28.5 29.7646 28.5C34.6981 29.3093 36.1008 32.899 36.4766 35.3438C33.475 38.5124 29.2355 40.4959 24.5146 40.5V35.1592C19.9996 32.9992 20.6592 26.3701 20.6592 26.3701C13.2987 23.0822 10.182 18.9528 9.28906 17.584C11.7863 11.6517 17.6466 7.5 24.5 7.5Z" fill="#F9FBFF"/>
</svg>
