<svg width="49" height="48" viewBox="0 0 49 48" fill="none" xmlns="http://www.w3.org/2000/svg">
<path d="M23.1514 12.3615V38.841C23.1514 39.375 22.6099 39.723 22.1149 39.5265C16.9549 37.4775 12.2539 37.2195 5.82639 37.53C5.15139 37.575 4.55139 37.155 4.34139 36.525C2.06139 30.015 1.79139 19.56 3.69639 11.655C3.81639 11.16 4.17639 10.755 4.65639 10.59C13.3144 7.53447 19.4569 9.69297 22.8004 11.721C23.0239 11.8575 23.1514 12.099 23.1514 12.3615ZM44.9614 36.525C44.7514 37.155 44.1364 37.575 43.4764 37.53C37.0489 37.2345 32.3494 37.4805 27.1879 39.5265C26.6929 39.7245 26.1514 39.375 26.1514 38.841V12.3615C26.1514 12.1005 26.2789 11.8575 26.5024 11.721C29.8459 9.69297 35.9884 7.53447 44.6464 10.59C45.1264 10.755 45.4864 11.16 45.6064 11.655C47.5114 19.56 47.2414 30.015 44.9614 36.525Z" fill="#DDB725"/>
</svg>
