<svg width="57" height="56" viewBox="0 0 57 56" fill="none" xmlns="http://www.w3.org/2000/svg">
<path d="M33.1384 5.25C45.3884 5.25 47.8996 14.5267 47.8996 18.6375C47.8996 20.1547 47.7824 22.0658 47.2994 24.0468L36.0696 12.817C35.7196 12.467 35.2489 12.2938 34.7466 12.306C34.2531 12.3305 33.7946 12.5615 33.4796 12.943C30.6796 16.3485 26.5461 20.16 22.7714 19.0225C22.1904 18.8457 21.9244 18.4082 21.8176 18.1632C21.6234 17.7205 21.6321 17.2165 21.8404 16.7842C23.3646 13.636 27.4124 5.27275 33.1384 5.27275V5.25ZM25.7831 37.4202C23.4941 34.5275 20.2689 31.3022 17.3761 29.0133C16.4591 28.287 15.3391 27.9177 14.2261 27.9177C13.0449 27.9177 11.8741 28.336 10.9711 29.1883C10.7051 29.4403 10.4566 29.7097 10.2274 30.0002C8.92535 31.647 9.02685 34.0322 10.3096 35.693C12.4726 38.4965 16.2999 42.322 19.1016 44.485C19.9626 45.1483 21.0161 45.4965 22.0609 45.4965C23.0339 45.4965 23.9999 45.1955 24.7944 44.5672C25.0849 44.338 25.3544 44.0913 25.6064 43.8235C27.2636 42.0718 27.2794 39.312 25.7831 37.4202ZM49.4379 30.772L34.9269 16.625C30.3244 21.693 25.9021 23.625 21.7581 22.3737C20.3529 21.9485 19.2066 20.9265 18.6116 19.5685C18.0061 18.186 18.0341 16.6162 18.6904 15.2617C19.5671 13.4505 21.1614 10.1657 23.4924 7.29225C18.2616 6.2965 12.7946 8.071 9.2491 12.061C6.84285 14.7683 5.70185 18.2332 5.9451 22.085C6.0711 24.0747 6.5926 26.0662 7.4046 27.951C7.4326 27.9142 7.45185 27.8722 7.4816 27.8337C7.8141 27.412 8.17985 27.013 8.56835 26.6473C10.0891 25.2122 12.0981 24.4212 14.2261 24.4212C16.1494 24.4212 18.0394 25.0792 19.5479 26.2727C22.6401 28.7192 26.0806 32.1597 28.5271 35.252C31.1241 38.5332 30.9631 43.2547 28.1526 46.2315C27.7869 46.62 27.3879 46.9857 26.9661 47.3182C26.6021 47.607 26.2084 47.8537 25.7971 48.0725L26.1734 48.4435C27.9199 49.9747 30.1389 50.7832 32.3859 50.7832C33.4096 50.7832 34.4404 50.6152 35.4344 50.2705C41.1219 48.2965 46.3964 44.7178 50.3811 38.9025C50.3934 38.885 50.4056 38.8657 50.4179 38.8465C52.1154 36.33 51.5816 32.9157 49.4379 30.772Z" fill="#DDB725"/>
</svg>
