<svg width="49" height="48" viewBox="0 0 49 48" fill="none" xmlns="http://www.w3.org/2000/svg">
<path d="M23 12.3615V38.841C23 39.375 22.4585 39.723 21.9635 39.5265C16.8035 37.4775 12.1025 37.2195 5.67502 37.53C5.00002 37.575 4.40002 37.155 4.19002 36.525C1.91002 30.015 1.64002 19.56 3.54502 11.655C3.66502 11.16 4.02502 10.755 4.50502 10.59C13.163 7.53447 19.3055 9.69297 22.649 11.721C22.8725 11.8575 23 12.099 23 12.3615ZM44.81 36.525C44.6 37.155 43.985 37.575 43.325 37.53C36.8975 37.2345 32.198 37.4805 27.0365 39.5265C26.5415 39.7245 26 39.375 26 38.841V12.3615C26 12.1005 26.1275 11.8575 26.351 11.721C29.6945 9.69297 35.837 7.53447 44.495 10.59C44.975 10.755 45.335 11.16 45.455 11.655C47.36 19.56 47.09 30.015 44.81 36.525Z" fill="#F9FBFF"/>
</svg>
