<svg width="48" height="34" viewBox="0 0 48 34" fill="none" xmlns="http://www.w3.org/2000/svg">
<path d="M24 23.0075C20.586 23.0075 14.2155 24.8975 14.2155 28.5095C14.2155 30.077 15.1575 31.493 16.674 32.204C18.423 33.0245 21.1695 33.5075 24.0105 33.5075C26.589 33.5075 29.2425 33.11 31.3005 32.2085C32.811 31.547 33.786 30.095 33.786 28.5095C33.7845 24.8975 27.414 23.0075 24 23.0075ZM13.7415 21.92C12.567 21.644 11.4225 21.5 10.5 21.5C7.07997 21.5 0.719971 23.39 0.719971 27.005C0.719971 28.595 1.69497 30.05 3.19497 30.71C5.87397 31.874 9.12747 32.036 11.016 31.9955C11.5335 31.985 11.868 31.463 11.682 30.98C11.3835 30.2015 11.22 29.369 11.22 28.505C11.22 26.294 12.3465 24.554 13.998 23.2565C14.496 22.8635 14.3595 22.0655 13.7415 21.92ZM37.5 21.5C36.5775 21.5 35.433 21.644 34.2585 21.92C33.6405 22.0655 33.5025 22.8635 34.002 23.2565C35.6535 24.5555 36.78 26.294 36.78 28.505C36.78 29.3675 36.618 30.2015 36.318 30.98C36.132 31.463 36.4665 31.985 36.984 31.9955C38.8725 32.036 42.126 31.8755 44.805 30.71C46.305 30.05 47.28 28.595 47.28 27.005C47.28 23.39 40.92 21.5 37.5 21.5ZM24 11C23.3105 11 22.6278 11.1358 21.9909 11.3996C21.3539 11.6635 20.7752 12.0502 20.2877 12.5377C19.8002 13.0252 19.4134 13.604 19.1496 14.2409C18.8858 14.8779 18.75 15.5606 18.75 16.25C18.75 16.9394 18.8858 17.6221 19.1496 18.2591C19.4134 18.896 19.8002 19.4748 20.2877 19.9623C20.7752 20.4498 21.3539 20.8365 21.9909 21.1004C22.6278 21.3642 23.3105 21.5 24 21.5C24.6894 21.5 25.3721 21.3642 26.0091 21.1004C26.646 20.8365 27.2248 20.4498 27.7123 19.9623C28.1998 19.4748 28.5865 18.896 28.8503 18.2591C29.1142 17.6221 29.25 16.9394 29.25 16.25C29.25 15.5606 29.1142 14.8779 28.8503 14.2409C28.5865 13.604 28.1998 13.0252 27.7123 12.5377C27.2248 12.0502 26.646 11.6635 26.0091 11.3996C25.3721 11.1358 24.6894 11 24 11ZM18 0.5C16.8065 0.5 15.6619 0.974106 14.818 1.81802C13.9741 2.66193 13.5 3.80653 13.5 5C13.5 6.19347 13.9741 7.33807 14.818 8.18198C15.6619 9.0259 16.8065 9.5 18 9.5C19.1934 9.5 20.338 9.0259 21.182 8.18198C22.0259 7.33807 22.5 6.19347 22.5 5C22.5 3.80653 22.0259 2.66193 21.182 1.81802C20.338 0.974106 19.1934 0.5 18 0.5ZM30 0.5C28.8065 0.5 27.6619 0.974106 26.818 1.81802C25.9741 2.66193 25.5 3.80653 25.5 5C25.5 6.19347 25.9741 7.33807 26.818 8.18198C27.6619 9.0259 28.8065 9.5 30 9.5C31.1934 9.5 32.338 9.0259 33.182 8.18198C34.0259 7.33807 34.5 6.19347 34.5 5C34.5 3.80653 34.0259 2.66193 33.182 1.81802C32.338 0.974106 31.1934 0.5 30 0.5ZM37.5 9.5C36.8105 9.5 36.1278 9.63579 35.4909 9.89963C34.8539 10.1635 34.2752 10.5502 33.7877 11.0377C33.3002 11.5252 32.9134 12.104 32.6496 12.7409C32.3858 13.3779 32.25 14.0606 32.25 14.75C32.25 15.4394 32.3858 16.1221 32.6496 16.7591C32.9134 17.396 33.3002 17.9748 33.7877 18.4623C34.2752 18.9498 34.8539 19.3365 35.4909 19.6004C36.1278 19.8642 36.8105 20 37.5 20C38.1894 20 38.8721 19.8642 39.5091 19.6004C40.146 19.3365 40.7248 18.9498 41.2123 18.4623C41.6998 17.9748 42.0865 17.396 42.3503 16.7591C42.6142 16.1221 42.75 15.4394 42.75 14.75C42.75 14.0606 42.6142 13.3779 42.3503 12.7409C42.0865 12.104 41.6998 11.5252 41.2123 11.0377C40.7248 10.5502 40.146 10.1635 39.5091 9.89963C38.8721 9.63579 38.1894 9.5 37.5 9.5ZM10.5 9.5C9.81053 9.5 9.12784 9.63579 8.49088 9.89963C7.85392 10.1635 7.27517 10.5502 6.78766 11.0377C6.30015 11.5252 5.91344 12.104 5.6496 12.7409C5.38577 13.3779 5.24997 14.0606 5.24997 14.75C5.24997 15.4394 5.38577 16.1221 5.6496 16.7591C5.91344 17.396 6.30015 17.9748 6.78766 18.4623C7.27517 18.9498 7.85392 19.3365 8.49088 19.6004C9.12784 19.8642 9.81053 20 10.5 20C11.1894 20 11.8721 19.8642 12.5091 19.6004C13.146 19.3365 13.7248 18.9498 14.2123 18.4623C14.6998 17.9748 15.0865 17.396 15.3503 16.7591C15.6142 16.1221 15.75 15.4394 15.75 14.75C15.75 14.0606 15.6142 13.3779 15.3503 12.7409C15.0865 12.104 14.6998 11.5252 14.2123 11.0377C13.7248 10.5502 13.146 10.1635 12.5091 9.89963C11.8721 9.63579 11.1894 9.5 10.5 9.5Z" fill="#F9FBFF"/>
</svg>
