<svg width="57" height="56" viewBox="0 0 57 56" fill="none" xmlns="http://www.w3.org/2000/svg">
<path d="M47.0229 35.7105C45.9921 34.1477 44.2404 33.25 42.2174 33.25C39.6291 33.25 38.0576 34.657 36.5404 36.015C36.2254 36.2967 35.8999 36.582 35.5621 36.8672C35.5009 37.5655 35.3661 38.2585 35.0861 38.92C34.1551 41.1232 31.6019 43.75 24.7139 43.75C23.7461 43.75 22.9639 42.9677 22.9639 42C22.9639 41.0322 23.7461 40.25 24.7139 40.25C28.5901 40.25 31.1276 39.2945 31.8609 37.5602C32.1794 36.806 32.1619 35.9012 31.9466 35.0105C31.6456 34.7077 31.3114 34.4277 30.9491 34.1757C26.1594 30.8577 18.4821 30.478 13.1026 33.299C9.58687 35.14 7.65137 38.0747 7.65137 41.5625C7.65137 45.6242 11.3264 52.5 25.0971 52.5C38.1539 52.5 46.1724 43.736 47.4656 40.7155C48.1709 39.0705 48.0064 37.1997 47.0229 35.7105Z" fill="#DDB725"/>
<path d="M41.6403 14.0133C40.879 10.4452 37.6775 7.85583 34.0259 7.85583C32.1809 7.85583 30.3922 8.52333 28.9906 9.71302C27.589 8.52333 25.8003 7.85583 23.9553 7.85583C20.4884 7.85583 17.4087 10.1874 16.4656 13.5258C15.964 15.3118 16.1131 17.2196 16.8697 18.8555C18.9687 24.1215 24.7465 28.9177 28.9925 28.9177C33.2928 28.9177 39.0856 24.0915 41.1453 18.7918C41.5775 17.679 41.8062 16.6102 41.8231 15.6155C41.8315 15.0324 41.7668 14.4783 41.6403 14.0133Z" fill="#DDB725"/>
</svg>
