<svg width="57" height="57" viewBox="0 0 57 57" fill="none" xmlns="http://www.w3.org/2000/svg">
<path d="M45.9728 6.926C45.7646 6.4605 45.3621 6.1105 44.8738 5.96525C34.2618 2.8205 23.0391 2.8205 12.4271 5.96525C11.9388 6.1105 11.5381 6.4605 11.3298 6.926C8.77482 12.6083 8.77132 19.12 11.3228 24.7953C11.5311 25.2608 11.9336 25.6108 12.4218 25.756C17.7383 27.331 23.2036 28.1203 28.6688 28.1203C34.1218 28.1203 39.5748 27.3345 44.8756 25.7648C45.3638 25.6195 45.7663 25.2695 45.9746 24.804C48.5278 19.1218 48.5278 12.6065 45.9728 6.926ZM18.1513 17.615C17.1853 17.615 16.4013 16.831 16.4013 15.865C16.4013 14.899 17.1853 14.115 18.1513 14.115C19.1173 14.115 19.9013 14.899 19.9013 15.865C19.9013 16.831 19.1173 17.615 18.1513 17.615ZM28.6513 19.365C26.7176 19.365 25.1496 17.797 25.1496 15.8633C25.1496 13.9295 26.7176 12.3633 28.6513 12.3633C30.5851 12.3633 32.1531 13.9313 32.1531 15.865C32.1531 17.7988 30.5851 19.365 28.6513 19.365ZM39.1513 17.615C38.1853 17.615 37.4013 16.831 37.4013 15.865C37.4013 14.899 38.1853 14.115 39.1513 14.115C40.1173 14.115 40.9013 14.899 40.9013 15.865C40.9013 16.831 40.1173 17.615 39.1513 17.615Z" fill="#DDB725"/>
<path d="M47.0229 35.8237C45.9921 34.261 44.2404 33.3632 42.2174 33.3632C39.6291 33.3632 38.0576 34.7702 36.5404 36.1282C36.2254 36.41 35.8999 36.6952 35.5621 36.9805C35.5009 37.6787 35.3661 38.3717 35.0861 39.0332C34.1551 41.2365 31.6019 43.8632 24.7139 43.8632C23.7461 43.8632 22.9639 43.081 22.9639 42.1132C22.9639 41.1455 23.7461 40.3632 24.7139 40.3632C28.5901 40.3632 31.1276 39.4077 31.8609 37.6735C32.1794 36.9192 32.1619 36.0145 31.9466 35.1237C31.6456 34.821 31.3114 34.541 30.9491 34.289C26.1594 30.971 18.4821 30.5912 13.1026 33.4122C9.58687 35.2532 7.65137 38.188 7.65137 41.6757C7.65137 45.7375 11.3264 52.6132 25.0971 52.6132C38.1539 52.6132 46.1724 43.8492 47.4656 40.8287C48.1709 39.1837 48.0064 37.313 47.0229 35.8237Z" fill="#DDB725"/>
</svg>
