<svg width="57" height="57" viewBox="0 0 57 57" fill="none" xmlns="http://www.w3.org/2000/svg">
<path d="M33.1384 5.86328C45.3884 5.86328 47.8996 15.14 47.8996 19.2508C47.8996 20.768 47.7824 22.679 47.2994 24.66L36.0696 13.4303C35.7196 13.0803 35.2489 12.907 34.7466 12.9193C34.2531 12.9438 33.7946 13.1748 33.4796 13.5563C30.6796 16.9618 26.5461 20.7733 22.7714 19.6358C22.1904 19.459 21.9244 19.0215 21.8176 18.7765C21.6234 18.3338 21.6321 17.8298 21.8404 17.3975C23.3646 14.2493 27.4124 5.88603 33.1384 5.88603V5.86328ZM25.7831 38.0335C23.4941 35.1408 20.2689 31.9155 17.3761 29.6265C16.4591 28.9003 15.3391 28.531 14.2261 28.531C13.0449 28.531 11.8741 28.9493 10.9711 29.8015C10.7051 30.0535 10.4566 30.323 10.2274 30.6135C8.92535 32.2603 9.02685 34.6455 10.3096 36.3063C12.4726 39.1098 16.2999 42.9353 19.1016 45.0983C19.9626 45.7615 21.0161 46.1098 22.0609 46.1098C23.0339 46.1098 23.9999 45.8088 24.7944 45.1805C25.0849 44.9513 25.3544 44.7045 25.6064 44.4368C27.2636 42.685 27.2794 39.9253 25.7831 38.0335ZM49.4379 31.3853L34.9269 17.2383C30.3244 22.3063 25.9021 24.2383 21.7581 22.987C20.3529 22.5618 19.2066 21.5398 18.6116 20.1818C18.0061 18.7993 18.0341 17.2295 18.6904 15.875C19.5671 14.0638 21.1614 10.779 23.4924 7.90553C18.2616 6.90978 12.7946 8.68428 9.2491 12.6743C6.84285 15.3815 5.70185 18.8465 5.9451 22.6983C6.0711 24.688 6.5926 26.6795 7.4046 28.5643C7.4326 28.5275 7.45185 28.4855 7.4816 28.447C7.8141 28.0253 8.17985 27.6263 8.56835 27.2605C10.0891 25.8255 12.0981 25.0345 14.2261 25.0345C16.1494 25.0345 18.0394 25.6925 19.5479 26.886C22.6401 29.3325 26.0806 32.773 28.5271 35.8653C31.1241 39.1465 30.9631 43.868 28.1526 46.8448C27.7869 47.2333 27.3879 47.599 26.9661 47.9315C26.6021 48.2203 26.2084 48.467 25.7971 48.6858L26.1734 49.0568C27.9199 50.588 30.1389 51.3965 32.3859 51.3965C33.4096 51.3965 34.4404 51.2285 35.4344 50.8838C41.1219 48.9098 46.3964 45.331 50.3811 39.5158C50.3934 39.4983 50.4056 39.479 50.4179 39.4598C52.1154 36.9433 51.5816 33.529 49.4379 31.3853Z" fill="#DDB725"/>
</svg>
