<svg width="24" height="25" viewBox="0 0 24 25" fill="none" xmlns="http://www.w3.org/2000/svg">
<path d="M22.2233 7.18956C21.909 5.98431 20.6475 4.84056 19.4048 4.63881C14.4908 3.89331 9.50928 3.89256 4.58853 4.64031C3.35253 4.84056 2.09178 5.98431 1.77528 7.19781C0.969028 10.4348 0.915778 13.7183 1.61778 16.9688C1.98003 18.5303 3.64803 20.0543 5.26953 20.2996C7.50303 20.6078 9.75153 20.7623 12.0008 20.7623C14.25 20.7623 16.4985 20.6078 18.732 20.2996C18.735 20.2996 18.7388 20.2988 18.7418 20.2981C20.3535 20.0543 22.0215 18.5296 22.386 16.9576C23.085 13.7183 23.031 10.4356 22.2233 7.18956ZM20.2305 8.47656C17.6033 11.6461 12.9128 13.6636 12 13.6636C11.0873 13.6636 6.39678 11.6461 3.76953 8.47656C3.56628 8.23131 3.44328 7.90806 3.45528 7.58856C3.48228 6.87306 4.12653 6.22731 4.82103 6.12231C7.20378 5.76081 9.60228 5.58006 12 5.57931C14.3978 5.57931 16.7963 5.76006 19.179 6.12231C19.8735 6.22806 20.5178 6.87306 20.5448 7.58856C20.556 7.90806 20.4338 8.23131 20.2305 8.47656Z" fill="#F9FBFF"/>
</svg>
