<svg width="24" height="25" viewBox="0 0 24 25" fill="none" xmlns="http://www.w3.org/2000/svg">
<path d="M2.55451 5.24842C3.20776 3.72892 5.78101 2.47867 7.84051 2.69542C9.28651 2.84092 11.1075 5.28217 11.199 7.20067C11.2583 8.44117 10.3658 9.63367 9.87826 10.1879C10.3493 10.5727 11.253 11.3369 12.165 12.2489C13.062 13.1219 13.8435 14.0542 14.2365 14.5417C14.7915 14.0542 15.9818 13.1519 17.2223 13.2232C19.1408 13.3147 21.582 15.1349 21.7275 16.5809C21.936 18.6449 20.6948 21.2144 19.1738 21.8669C18.6848 22.0754 18.1313 22.1707 17.5365 22.1707C14.337 22.1707 9.90526 19.4249 7.45051 16.9709C4.53901 14.0594 1.21801 8.36617 2.55451 5.24842Z" fill="#F9FBFF"/>
</svg>
