<svg width="24" height="25" viewBox="0 0 24 25" fill="none" xmlns="http://www.w3.org/2000/svg">
<path d="M12 2.6709C6.624 2.6709 2.25 7.0449 2.25 12.4209C2.25 13.9674 2.622 15.5004 3.32775 16.8744C3.12375 17.7744 2.5935 20.4316 3.29175 21.1299C3.99 21.8281 6.6465 21.2986 7.54725 21.0931C8.9205 21.7989 10.4535 22.1709 12 22.1709C17.376 22.1709 21.75 17.7969 21.75 12.4209C21.75 7.0449 17.376 2.6709 12 2.6709ZM15.9375 17.5209C14.4075 18.1809 11.3475 16.5684 9.6 14.8209C7.8525 13.0734 6.24 10.0134 6.9 8.4834C7.23 7.7109 8.5875 7.0734 9.645 7.1859C10.29 7.2459 11.28 8.4684 11.3325 9.5034C11.37 10.3509 10.485 11.1909 10.485 11.1909C10.485 11.1909 11.2125 11.7534 11.94 12.4809C12.645 13.1709 13.23 13.9359 13.23 13.9359C13.23 13.9359 14.07 13.0509 14.9175 13.0884C15.9525 13.1409 17.175 14.1309 17.235 14.7759C17.3475 15.8334 16.71 17.1909 15.9375 17.5209Z" fill="#F9FBFF"/>
</svg>
