<svg width="32" height="32" viewBox="0 0 32 32" fill="none" xmlns="http://www.w3.org/2000/svg">
<path d="M26.963 7.254C26.705 6.165 25.835 5.295 24.746 5.037C18.942 3.661 13.058 3.66 7.254 5.037C6.165 5.295 5.295 6.165 5.037 7.254C3.66 13.061 3.66 18.947 5.039 24.751C5.296 25.837 6.163 26.704 7.248 26.961C10.152 27.65 13.076 27.995 16 27.995C18.924 27.995 21.848 27.65 24.752 26.961C25.837 26.704 26.704 25.837 26.961 24.752C28.34 18.947 28.34 13.061 26.963 7.254ZM21.515 20.143C21.989 20.427 22.142 21.041 21.858 21.515C21.67 21.827 21.339 22 20.999 22C20.824 22 20.646 21.954 20.485 21.857C18.87 20.888 17.368 19.791 16 18.606C14.631 19.791 13.13 20.888 11.515 21.857C11.354 21.954 11.176 22 11.001 22C10.661 22 10.33 21.827 10.143 21.515C9.859 21.041 10.012 20.427 10.486 20.143C11.921 19.282 13.27 18.296 14.513 17.233C12.715 15.448 11.219 13.501 10.122 11.477C9.858 10.991 10.039 10.384 10.524 10.122C11.009 9.86 11.617 10.039 11.879 10.524C12.883 12.377 14.3 14.2 16 15.875C17.7 14.2 19.117 12.377 20.121 10.524C20.384 10.039 20.991 9.859 21.476 10.122C21.961 10.385 22.142 10.991 21.878 11.477C20.781 13.501 19.285 15.449 17.487 17.233C18.731 18.296 20.08 19.282 21.515 20.143Z" fill="black"/>
</svg>
