<svg width="32" height="32" viewBox="0 0 32 32" fill="none" xmlns="http://www.w3.org/2000/svg">
<g clip-path="url(#clip0_912_38)">
<rect width="32" height="32" rx="16" fill="#F9FBFF"/>
<g clip-path="url(#clip1_912_38)">
<path d="M22.2669 7.6033C19.5288 7.67808 15.4261 8.97103 12.6711 10.4957C11.4651 11.1629 10.9979 12.5805 11.7568 13.787C11.9376 14.0749 12.1307 14.3634 12.3295 14.6503C10.1462 16.4688 8.39236 18.7848 7.2548 21.4327C7.10525 21.7817 7.09412 22.181 7.22405 22.5379C7.63717 23.6734 8.52654 24.4959 9.69804 24.9886C10.0804 25.1493 10.5179 25.1615 10.8987 24.996C13.5122 23.8622 15.799 22.1269 17.6015 19.9722C17.9213 20.1891 18.2475 20.3986 18.5842 20.5943C19.5049 21.1288 20.9267 21.123 21.788 19.6105C23.5582 16.5038 24.7027 12.2188 24.6809 9.78614C24.6761 9.2224 24.5022 8.65389 24.0721 8.22379C23.6028 7.75763 22.9261 7.5858 22.2669 7.6033Z" fill="#2772D7"/>
</g>
</g>
<defs>
<clipPath id="clip0_912_38">
<rect width="32" height="32" rx="16" fill="white"/>
</clipPath>
<clipPath id="clip1_912_38">
<rect width="24" height="24" fill="white" transform="translate(-0.970581 16) rotate(-45)"/>
</clipPath>
</defs>
</svg>
