<svg width="32" height="32" viewBox="0 0 32 32" fill="none" xmlns="http://www.w3.org/2000/svg">
<path d="M27.66 13.99C19.378 12.367 12.623 12.367 4.34099 13.99C3.95599 14.065 3.65099 14.359 3.55999 14.742C3.36599 15.564 3.36599 16.435 3.55999 17.258C3.64999 17.641 3.95599 17.935 4.34099 18.01C8.48199 18.821 12.241 19.227 16.001 19.227C19.761 19.227 23.52 18.821 27.661 18.01C28.046 17.935 28.351 17.641 28.442 17.258C28.636 16.436 28.636 15.565 28.442 14.742C28.35 14.359 28.045 14.065 27.66 13.99ZM4.33999 10.01C8.48099 10.821 12.24 11.227 16 11.227C19.76 11.227 23.519 10.821 27.66 10.01C28.045 9.935 28.35 9.641 28.441 9.258C28.635 8.436 28.635 7.565 28.441 6.742C28.351 6.359 28.045 6.065 27.66 5.99C19.378 4.367 12.623 4.367 4.34099 5.99C3.95499 6.065 3.64999 6.359 3.55999 6.742C3.36599 7.564 3.36599 8.435 3.55999 9.258C3.64999 9.641 3.95499 9.935 4.33999 10.01ZM27.66 21.99C19.378 20.367 12.623 20.367 4.34099 21.99C3.95599 22.065 3.65099 22.359 3.55999 22.742C3.36599 23.564 3.36599 24.435 3.55999 25.258C3.64999 25.641 3.95599 25.935 4.34099 26.01C8.48199 26.821 12.241 27.227 16.001 27.227C19.761 27.227 23.52 26.821 27.661 26.01C28.046 25.935 28.351 25.641 28.442 25.258C28.636 24.436 28.636 23.565 28.442 22.742C28.35 22.359 28.045 22.065 27.66 21.99Z" fill="black"/>
</svg>
