<svg width="80" height="80" viewBox="0 0 80 80" fill="none" xmlns="http://www.w3.org/2000/svg">
<path d="M66.245 51.0149C64.7725 48.7824 62.27 47.4999 59.38 47.4999C55.6825 47.4999 53.4375 49.5099 51.27 51.4499C50.82 51.8524 50.355 52.2599 49.8725 52.6674C49.785 53.6649 49.5925 54.6549 49.1925 55.5999C47.8625 58.7474 44.215 62.4999 34.375 62.4999C32.9925 62.4999 31.875 61.3824 31.875 59.9999C31.875 58.6174 32.9925 57.4999 34.375 57.4999C39.9125 57.4999 43.5375 56.1349 44.585 53.6574C45.04 52.5799 45.015 51.2874 44.7075 50.0149C44.2775 49.5824 43.8 49.1824 43.2825 48.8224C36.44 44.0824 25.4725 43.5399 17.7875 47.5699C12.765 50.1999 10 54.3924 10 59.3749C10 65.1774 15.25 74.9999 34.9225 74.9999C53.575 74.9999 65.03 62.4799 66.8775 58.1649C67.885 55.8149 67.65 53.1424 66.245 51.0149Z" fill="#2772D7"/>
<path d="M40.4981 8.8562C30.8983 8.8562 23.0874 16.6671 23.0874 26.2669C23.0874 35.8667 30.8983 43.6776 40.4981 43.6776C50.0979 43.6776 57.9088 35.8667 57.9088 26.2669C57.9088 16.6671 50.0979 8.8562 40.4981 8.8562ZM40.4981 11.5348C42.3257 11.5348 44.0669 11.882 45.68 12.4869C45.3587 14.0346 44.4365 16.2243 41.7563 16.8919C40.5108 17.2 39.1719 17.6415 39.1719 19.4763C39.1719 19.4763 38.9312 21.7937 36.4803 22.2491C38.1678 23.6553 37.8195 25.8641 37.8195 25.8641C44.4892 25.6096 45.1987 30.2848 45.1987 30.2848C49.6036 31.0074 50.856 34.2125 51.1915 36.3953C48.5115 39.2244 44.7262 40.9954 40.5112 40.9991V36.2305C36.4799 34.3019 37.0688 28.3831 37.0688 28.3831C30.497 25.4474 27.7142 21.7605 26.9169 20.5383C29.1466 15.2416 34.379 11.5348 40.4981 11.5348Z" fill="#2772D7"/>
</svg>
