<svg width="56" height="56" viewBox="0 0 56 56" fill="none" xmlns="http://www.w3.org/2000/svg">
<path d="M51.9033 12.684C49.6615 10.7205 47.3235 10.4353 45.3793 10.6208C45.5595 8.67652 45.2778 6.33852 43.316 4.09677C42.6773 3.36702 41.5713 3.29527 40.8468 3.93227C40.1188 4.56927 40.0453 5.67527 40.6823 6.40152C42.203 8.13927 42.077 9.81577 41.6098 11.914L39.7758 13.748C36.1183 10.647 31.4108 8.75002 26.25 8.75002C14.6703 8.75002 5.25 18.1703 5.25 29.75C5.25 41.3298 14.6703 50.75 26.25 50.75C37.8298 50.75 47.25 41.3298 47.25 29.75C47.25 25.8615 46.1685 22.2303 44.3205 19.1048L39.1388 24.2865C39.8528 25.9648 40.25 27.8128 40.25 29.75C40.25 37.4693 33.9693 43.75 26.25 43.75C18.5308 43.75 12.25 37.4693 12.25 29.75C12.25 22.0308 18.5308 15.75 26.25 15.75C29.4805 15.75 32.4433 16.8665 34.811 18.7145L32.3208 21.2048C30.6058 19.9798 28.5145 19.25 26.25 19.25C20.4593 19.25 15.75 23.9593 15.75 29.75C15.75 35.5408 20.4593 40.25 26.25 40.25C32.0408 40.25 36.75 35.5408 36.75 29.75C36.75 28.812 36.6153 27.9073 36.3825 27.041L29.9618 33.4618C29.6205 33.803 29.1725 33.9745 28.7245 33.9745C28.2765 33.9745 27.8285 33.803 27.4873 33.4618C26.803 32.7775 26.803 31.6715 27.4873 30.9873L44.086 14.3885C46.1825 13.9213 47.859 13.7953 49.5985 15.316C49.9293 15.6065 50.3405 15.75 50.75 15.75C51.2365 15.75 51.7213 15.547 52.0678 15.1533C52.703 14.4253 52.6295 13.3193 51.9033 12.684Z" fill="#2772D7"/>
</svg>
