<svg width="17" height="17" viewBox="0 0 17 17" fill="none" xmlns="http://www.w3.org/2000/svg">
<path d="M14.9742 6.701C15.0652 6.3535 15.0252 5.9785 14.8552 5.6465C14.4537 4.8585 13.7857 4.301 12.9737 4.0765C12.7072 4.0035 12.4087 4.0175 12.1342 4.1165C10.2867 4.7815 8.76365 6.375 8.06815 7.198C7.37265 6.375 5.85015 4.7815 4.00265 4.117C3.72765 4.0175 3.42965 4.003 3.16215 4.0765C2.35065 4.3005 1.68265 4.858 1.28115 5.6465C1.17015 5.863 1.11415 6.098 1.11415 6.332C1.11415 6.4565 1.13015 6.5805 1.16215 6.701C2.08965 10.203 5.83915 13.5 8.06815 13.5C10.2972 13.5 14.0467 10.203 14.9742 6.701Z" fill="black"/>
</svg>
