<svg width="56" height="56" viewBox="0 0 56 56" fill="none" xmlns="http://www.w3.org/2000/svg">
<path d="M28 8.75C13.51 8.75 1.75 20.398 1.75 28C1.75 35.602 13.51 47.25 28 47.25C42.49 47.25 54.25 35.602 54.25 28C54.25 20.398 42.49 8.75 28 8.75ZM28 12.25C34.7655 12.25 40.25 17.7345 40.25 24.5C40.25 31.2655 34.7655 36.75 28 36.75C21.2345 36.75 15.75 31.2655 15.75 24.5C15.75 17.7345 21.2345 12.25 28 12.25ZM28 19.25C26.6076 19.25 25.2723 19.8031 24.2877 20.7877C23.3031 21.7723 22.75 23.1076 22.75 24.5C22.75 25.8924 23.3031 27.2277 24.2877 28.2123C25.2723 29.1969 26.6076 29.75 28 29.75C29.3924 29.75 30.7277 29.1969 31.7123 28.2123C32.6969 27.2277 33.25 25.8924 33.25 24.5C33.25 23.1076 32.6969 21.7723 31.7123 20.7877C30.7277 19.8031 29.3924 19.25 28 19.25Z" fill="#2772D7"/>
</svg>
