<svg width="48" height="49" viewBox="0 0 48 49" fill="none" xmlns="http://www.w3.org/2000/svg">
<path d="M32.8844 6.75708C27.5864 3.85008 20.4119 3.85158 15.1139 6.75708C14.5889 7.04658 14.2574 7.63608 14.2499 8.27358C14.2364 9.38208 14.5589 11.5016 15.8159 13.7606C15.9314 13.9691 16.2029 14.0441 16.4159 13.9391C19.0784 12.6416 21.4784 12.0776 23.9864 12.0776C26.4899 12.0776 29.0384 12.5921 31.5959 13.8131C31.8089 13.9151 32.0729 13.8371 32.1884 13.6316C33.4454 11.3846 33.7634 9.38208 33.7499 8.27358C33.7424 7.63608 33.4109 7.04658 32.8844 6.75708Z" fill="#DDB725"/>
<path d="M33.2234 16.489C27.6252 14.608 20.3067 14.605 14.7522 16.489C14.5999 16.54 14.4442 16.609 14.3147 16.6945C-2.61484 27.832 3.94416 38.332 5.84641 39.826C8.71116 42.0775 15.5152 43.5775 23.9904 43.5775C32.4657 43.5775 39.2679 42.0775 42.1327 39.826C44.0349 38.332 50.5974 27.832 33.6679 16.696C33.5367 16.609 33.3792 16.5415 33.2234 16.489Z" fill="#DDB725"/>
<path d="M25.6458 36.4204H23.2629V34.7747C20.8801 34.4318 19.7658 33.1118 19.7658 30.969V30.7461H22.2858V30.9175C22.2858 32.1861 22.7486 32.5461 24.8229 32.5461C26.2801 32.5461 26.6401 32.2547 26.6401 31.4832C26.6401 30.7118 26.4686 30.4375 24.8572 30.1632L22.8344 29.8032C20.6401 29.4261 19.7144 28.3118 19.7144 26.529C19.7144 24.969 20.7258 23.4432 23.2629 23.1175V21.5061H25.6458V23.169C27.9429 23.5804 28.9372 25.089 28.9372 27.0261V27.1632H26.4001V26.9747C26.4001 25.7747 25.9029 25.3804 24.2058 25.3804C22.7315 25.3804 22.2686 25.7061 22.2686 26.4261C22.2686 27.1632 22.5772 27.3347 23.9144 27.5918L25.9544 27.9861C28.3715 28.449 29.1944 29.7175 29.1944 31.3975C29.1944 33.0432 28.2001 34.5347 25.6458 34.8261V36.4204Z" fill="#F9FBFF"/>
</svg>
