<svg width="48" height="49" viewBox="0 0 48 49" fill="none" xmlns="http://www.w3.org/2000/svg">
<path d="M32.8844 6.75708C27.5864 3.85008 20.4119 3.85158 15.1139 6.75708C14.5889 7.04658 14.2574 7.63608 14.2499 8.27358C14.2364 9.38208 14.5589 11.5016 15.8159 13.7606C15.9314 13.9691 16.2029 14.0441 16.4159 13.9391C19.0784 12.6416 21.4784 12.0776 23.9864 12.0776C26.4899 12.0776 29.0384 12.5921 31.5959 13.8131C31.8089 13.9151 32.0729 13.8371 32.1884 13.6316C33.4454 11.3846 33.7634 9.38208 33.7499 8.27358C33.7424 7.63608 33.4109 7.04658 32.8844 6.75708Z" fill="#DDB725"/>
<path d="M31.9156 16.489C27.1171 14.608 20.8441 14.605 16.083 16.489C15.9525 16.54 15.819 16.609 15.708 16.6945C1.19705 27.832 6.81905 38.332 8.44955 39.826C10.905 42.0775 16.737 43.5775 24.0015 43.5775C31.266 43.5775 37.0965 42.0775 39.552 39.826C41.1825 38.332 46.8076 27.832 32.2966 16.696C32.184 16.609 32.0491 16.5415 31.9156 16.489Z" fill="#DDB725"/>
<path d="M26.2535 31.0551H24.1621C24.1792 31.1751 24.1792 31.2951 24.1792 31.4151C24.1792 32.1009 23.8706 32.5294 23.2878 32.8209V32.9066H29.2363V35.2209H19.8078V32.9066H20.5278C21.4363 32.9066 21.8992 32.4609 21.8992 31.8266C21.8992 31.5694 21.8649 31.3466 21.7792 31.0551H19.7563V28.9466H20.7163C20.4592 28.3637 20.2878 27.7809 20.2878 27.0266C20.2878 25.0723 21.7963 23.5637 24.8135 23.5637C27.9506 23.5637 29.0992 25.278 29.0992 27.4209V27.7294H26.5792V27.438C26.5792 26.3066 26.2021 25.9123 24.7106 25.9123C23.3906 25.9123 22.8592 26.3066 22.8592 27.198C22.8592 27.7123 22.9963 28.158 23.3221 28.8951L23.3392 28.9466H26.2535V31.0551Z" fill="#F9FBFF"/>
</svg>
