<svg width="48" height="49" viewBox="0 0 48 49" fill="none" xmlns="http://www.w3.org/2000/svg">
<path d="M32.8844 6.75708C27.5864 3.85008 20.4119 3.85158 15.1139 6.75708C14.5889 7.04658 14.2574 7.63608 14.2499 8.27358C14.2364 9.38208 14.5589 11.5016 15.8159 13.7606C15.9314 13.9691 16.2029 14.0441 16.4159 13.9391C19.0784 12.6416 21.4784 12.0776 23.9864 12.0776C26.4899 12.0776 29.0384 12.5921 31.5959 13.8131C31.8089 13.9151 32.0729 13.8371 32.1884 13.6316C33.4454 11.3846 33.7634 9.38208 33.7499 8.27358C33.7424 7.63608 33.4109 7.04658 32.8844 6.75708Z" fill="#DDB725"/>
<path d="M31.9156 16.489C27.1171 14.608 20.8441 14.605 16.083 16.489C15.9525 16.54 15.819 16.609 15.708 16.6945C1.19705 27.832 6.81905 38.332 8.44955 39.826C10.905 42.0775 16.737 43.5775 24.0015 43.5775C31.266 43.5775 37.0965 42.0775 39.552 39.826C41.1825 38.332 46.8076 27.832 32.2966 16.696C32.184 16.609 32.0491 16.5415 31.9156 16.489Z" fill="#DDB725"/>
<path d="M20.2609 35.2202V30.9859H19.2666V29.7174H20.2609V28.4831H19.2666V27.2145H20.2609V22.9802H22.9523L24.2895 27.2145H25.8495V22.9802H27.7523V27.2145H28.7295V28.4831H27.7523V29.7174H28.7295V30.9859H27.7523V35.2202H25.0437L23.6723 30.9859H22.1637V35.2202H20.2609ZM22.1637 29.7174H23.2952L22.918 28.4831H22.1295L22.1637 29.7174ZM25.9009 32.5459H25.9866L25.918 30.9859H25.4552L25.9009 32.5459ZM22.0952 27.2145H22.5752L22.078 25.5688H22.0095L22.0952 27.2145ZM25.0952 29.7174H25.8837L25.8495 28.4831H24.7009L25.0952 29.7174Z" fill="#F9FBFF"/>
</svg>
