<svg width="373" height="928" viewBox="0 0 373 928" fill="none" xmlns="http://www.w3.org/2000/svg">
<path d="M0 927.077H373V0.421448H0V927.077Z" fill="#FBFBFB"/>
<path d="M60.9529 925.975H373V899.743H60.9529V925.975Z" fill="#FBFBFB"/>
<path d="M60.9529 898.653H373V869.772H60.9529V898.653Z" fill="#FBFBFB"/>
<path d="M60.9529 868.683H373V839.601H60.9529V868.683Z" fill="#FBFBFB"/>
<path d="M60.9529 838.513H373V809.794H60.9529V838.513Z" fill="#FBFBFB"/>
<path d="M60.9529 808.706H373V779.995H60.9529V808.706Z" fill="#FBFBFB"/>
<path d="M60.9529 778.9H373V750.187H60.9529V778.9Z" fill="#FBFBFB"/>
<path d="M60.9529 749.094H373V720.136H60.9529V749.094Z" fill="#FBFBFB"/>
<path d="M373 719.046H60.9529V689.538H372.567V688.447H60.9529V659.731H372.567V658.642H60.9529V629.925H372.567V628.834H60.9529V597.651H373V719.046Z" fill="#FBFBFB"/>
<path d="M60.9529 596.563H373V567.685H60.9529V596.563Z" fill="#FBFBFB"/>
<path d="M60.9529 566.597H373V537.518H60.9529V566.597Z" fill="#FBFBFB"/>
<path d="M60.9529 536.428H373V507.712H60.9529V536.428Z" fill="#FBFBFB"/>
<path d="M60.9529 506.62H373V477.902H60.9529V506.62Z" fill="#FBFBFB"/>
<path d="M60.9529 476.813H373V448.096H60.9529V476.813Z" fill="#FBFBFB"/>
<path d="M60.9529 447.007H373V418.049H60.9529V447.007Z" fill="#FBFBFB"/>
<path d="M373 416.958H60.9529V387.45H372.567V386.36H60.9529V357.644H372.567V356.554H60.9529V327.837H372.567V326.748H60.9529V297.909H372.642V296.82H60.9529V268.01H373V416.958Z" fill="#FBFBFB"/>
<path d="M60.9529 266.921H373V238.029H60.9529V266.921Z" fill="#FBFBFB"/>
<path d="M373 236.939H60.9529V207.831H372.903V206.741H60.9529V177.867H373V236.939Z" fill="#FBFBFB"/>
<path d="M60.9529 176.776H373V148.059H60.9529V176.776Z" fill="#FBFBFB"/>
<path d="M60.9529 146.972H373V118.255H60.9529V146.972Z" fill="#FBFBFB"/>
<path d="M60.9529 117.164H373V88.2056H60.9529V117.164Z" fill="#FBFBFB"/>
<path d="M60.9529 87.1174H373V58.4017H60.9529V87.1174Z" fill="#FBFBFB"/>
<path d="M60.9529 57.3105H373V31.3192H60.9529V57.3105Z" fill="#FBFBFB"/>
<path d="M60.9529 30.2302H373V1.51294H60.9529V30.2302Z" fill="#FBFBFB"/>
<path d="M373 58.3447H60.9529V57.2557H373V58.3447ZM60.9529 58.3447H0.433105V57.2557H60.9529V58.3447Z" fill="#BBD5D9"/>
<path d="M373 88.2681H60.9529V87.179H373V88.2681ZM60.9529 88.2681H0.433105V87.179H60.9529V88.2681Z" fill="#BBD5D9"/>
<path d="M373 1.39404H60.9529V0.304984H373V1.39404ZM60.9529 1.39404H0.433105V0.304984H60.9529V1.39404Z" fill="#BBD5D9"/>
<path d="M373 118.191H60.9529V117.102H373V118.191ZM60.9529 118.191H0.433105V117.102H60.9529V118.191Z" fill="#BBD5D9"/>
<path d="M373 148.115H60.9529V147.025H373V148.115ZM60.9529 148.115H0.433105V147.025H60.9529V148.115Z" fill="#BBD5D9"/>
<path d="M373 178.038H60.9529V176.949H373V178.038ZM60.9529 178.038H0.433105V176.949H60.9529V178.038Z" fill="#BBD5D9"/>
<path d="M373 207.962H60.9529V206.873H373V207.962ZM60.9529 207.962H0.433105V206.873H60.9529V207.962Z" fill="#BBD5D9"/>
<path d="M373 237.884H60.9529V236.795H373V237.884ZM60.9529 237.884H0.433105V236.795H60.9529V237.884Z" fill="#BBD5D9"/>
<path d="M373 267.809H60.9529V266.72H373V267.809ZM60.9529 267.809H0.433105V266.72H60.9529V267.809Z" fill="#BBD5D9"/>
<path d="M372.708 297.732H60.6614V296.643H372.708V297.732ZM60.6614 297.732H0.141602V296.643H60.6614V297.732Z" fill="#BBD5D9"/>
<path d="M372.708 327.654H60.6614V326.565H372.708V327.654ZM60.6614 327.654H0.141602V326.565H60.6614V327.654Z" fill="#BBD5D9"/>
<path d="M372.708 357.577H60.6614V356.488H372.708V357.577ZM60.6614 357.577H0.141602V356.488H60.6614V357.577Z" fill="#BBD5D9"/>
<path d="M372.708 387.501H60.6614V386.412H372.708V387.501ZM60.6614 387.501H0.141602V386.412H60.6614V387.501Z" fill="#BBD5D9"/>
<path d="M373 417.906H60.9529V416.817H373V417.906ZM60.9529 417.906H0.433105V416.817H60.9529V417.906Z" fill="#BBD5D9"/>
<path d="M373 448.313H60.9529V447.224H373V448.313ZM60.9529 448.313H0.433105V447.224H60.9529V448.313Z" fill="#BBD5D9"/>
<path d="M373 477.903H60.9529V476.813H373V477.903ZM60.0218 477.903H0.433105V476.813H60.0218V477.903Z" fill="#BBD5D9"/>
<path d="M373 507.711H60.9529V506.621H373V507.711ZM60.0218 507.711H0.433105V506.621H60.0218V507.711Z" fill="#BBD5D9"/>
<path d="M373 537.517H60.9529V536.427H373V537.517ZM60.0218 537.517H0.433105V536.427H60.0218V537.517Z" fill="#BBD5D9"/>
<path d="M373 567.683H60.9529V566.593H373V567.683ZM60.0218 567.683H0.433105V566.593H60.0218V567.683Z" fill="#BBD5D9"/>
<path d="M373 597.651H60.9529V596.562H373V597.651ZM60.0218 597.651H0.433105V596.562H60.0218V597.651Z" fill="#BBD5D9"/>
<path d="M372.567 629.926H60.9529V628.836H372.567V629.926ZM60.0218 629.926H0V628.836H60.0218V629.926Z" fill="#BBD5D9"/>
<path d="M372.567 659.73H60.9529V658.641H372.567V659.73ZM60.0218 659.73H0V658.641H60.0218V659.73Z" fill="#BBD5D9"/>
<path d="M372.567 689.54H60.9529V688.449H372.567V689.54ZM60.0218 689.54H0V688.449H60.0218V689.54Z" fill="#BBD5D9"/>
<path d="M373 720.137H60.9529V719.046H373V720.137ZM60.0218 720.137H0V719.046H60.0218V720.137Z" fill="#BBD5D9"/>
<path d="M373 750.186H60.9529V749.096H373V750.186ZM60.0218 750.186H0V749.096H60.0218V750.186Z" fill="#BBD5D9"/>
<path d="M373 779.994H60.9529V778.897H373V779.994ZM60.0218 779.994H0V778.897H60.0218V779.994Z" fill="#BBD5D9"/>
<path d="M373 809.794H60.9529V808.705H373V809.794ZM60.0218 809.794H0V808.705H60.0218V809.794Z" fill="#BBD5D9"/>
<path d="M373 839.6H60.9529V838.511H373V839.6ZM60.0218 839.6H0V838.511H60.0218V839.6Z" fill="#BBD5D9"/>
<path d="M373 869.771H60.9529V868.683H373V869.771ZM60.0218 869.771H0V868.683H60.0218V869.771Z" fill="#BBD5D9"/>
<path d="M373 899.741H60.9529V898.652H373V899.741ZM60.0218 899.741H0V898.652H60.0218V899.741Z" fill="#BBD5D9"/>
<path d="M373 927.062H60.9529V925.973H373V927.077M60.0218 927.062H0.433105V925.973H60.0218V927.077" fill="#BBD5D9"/>
<path d="M373 31.3174H60.9529V30.2283H373V31.3174ZM60.9529 31.3174H0.433105V30.2283H60.9529V31.3174Z" fill="#BBD5D9"/>
<path d="M0 919.465H373V0.1922H0V919.465Z" fill="#FBFBFB"/>
<path d="M60.9529 918.369H373V892.346H60.9529V918.369Z" fill="#FBFBFB"/>
<path d="M60.9529 891.266H373V862.615H60.9529V891.266Z" fill="#FBFBFB"/>
<path d="M60.9529 861.535H373V832.685H60.9529V861.535Z" fill="#FBFBFB"/>
<path d="M60.9529 831.604H373V803.114H60.9529V831.604Z" fill="#FBFBFB"/>
<path d="M60.9529 802.036H373V773.554H60.9529V802.036Z" fill="#FBFBFB"/>
<path d="M60.9529 772.467H373V743.983H60.9529V772.467Z" fill="#FBFBFB"/>
<path d="M60.9529 742.899H373V714.172H60.9529V742.899Z" fill="#FBFBFB"/>
<path d="M373 713.091H60.9529V683.818H372.567V682.736H60.9529V654.249H372.567V653.168H60.9529V624.68H372.567V623.598H60.9529V592.664H373V713.091Z" fill="#FBFBFB"/>
<path d="M60.9529 591.583H373V562.936H60.9529V591.583Z" fill="#FBFBFB"/>
<path d="M60.9529 561.855H373V533.008H60.9529V561.855Z" fill="#FBFBFB"/>
<path d="M60.9529 531.927H373V503.44H60.9529V531.927Z" fill="#FBFBFB"/>
<path d="M60.9529 502.356H373V473.867H60.9529V502.356Z" fill="#FBFBFB"/>
<path d="M60.9529 472.788H373V444.299H60.9529V472.788Z" fill="#FBFBFB"/>
<path d="M60.9529 443.219H373V414.491H60.9529V443.219Z" fill="#FBFBFB"/>
<path d="M373 413.41H60.9529V384.137H372.567V383.056H60.9529V354.568H372.567V353.487H60.9529V324.999H372.567V323.918H60.9529V295.31H372.642V294.229H60.9529V265.648H373V413.41Z" fill="#FBFBFB"/>
<path d="M60.9529 264.567H373V235.906H60.9529V264.567Z" fill="#FBFBFB"/>
<path d="M373 234.825H60.9529V205.948H372.903V204.867H60.9529V176.224H373V234.825Z" fill="#FBFBFB"/>
<path d="M60.9529 175.141H373V146.653H60.9529V175.141Z" fill="#FBFBFB"/>
<path d="M60.9529 145.575H373V117.087H60.9529V145.575Z" fill="#FBFBFB"/>
<path d="M60.9529 116.004H373V87.2771H60.9529V116.004Z" fill="#FBFBFB"/>
<path d="M60.9529 86.1973H373V57.7103H60.9529V86.1973Z" fill="#FBFBFB"/>
<path d="M60.9529 56.6272H373V30.843H60.9529V56.6272Z" fill="#FBFBFB"/>
<path d="M60.9529 29.7627H373V1.27421H60.9529V29.7627Z" fill="#FBFBFB"/>
<path d="M373 57.6538H60.9529V56.5737H373V57.6538ZM60.9529 57.6538H0.433105V56.5737H60.9529V57.6538Z" fill="#BBD5D9"/>
<path d="M373 87.3379H60.9529V86.2578H373V87.3379ZM60.9529 87.3379H0.433105V86.2578H60.9529V87.3379Z" fill="#BBD5D9"/>
<path d="M373 1.15674H60.9529V0.0766224H373V1.15674ZM60.9529 1.15674H0.433105V0.0766224H60.9529V1.15674Z" fill="#BBD5D9"/>
<path d="M373 117.023H60.9529V115.943H373V117.023ZM60.9529 117.023H0.433105V115.943H60.9529V117.023Z" fill="#BBD5D9"/>
<path d="M373 146.708H60.9529V145.628H373V146.708ZM60.9529 146.708H0.433105V145.628H60.9529V146.708Z" fill="#BBD5D9"/>
<path d="M373 176.394H60.9529V175.314H373V176.394ZM60.9529 176.394H0.433105V175.314H60.9529V176.394Z" fill="#BBD5D9"/>
<path d="M373 206.078H60.9529V204.998H373V206.078ZM60.9529 206.078H0.433105V204.998H60.9529V206.078Z" fill="#BBD5D9"/>
<path d="M373 235.763H60.9529V234.683H373V235.763ZM60.9529 235.763H0.433105V234.683H60.9529V235.763Z" fill="#BBD5D9"/>
<path d="M373 265.448H60.9529V264.368H373V265.448ZM60.9529 265.448H0.433105V264.368H60.9529V265.448Z" fill="#BBD5D9"/>
<path d="M372.708 295.134H60.6614V294.054H372.708V295.134ZM60.6614 295.134H0.141602V294.054H60.6614V295.134Z" fill="#BBD5D9"/>
<path d="M372.708 324.817H60.6614V323.737H372.708V324.817ZM60.6614 324.817H0.141602V323.737H60.6614V324.817Z" fill="#BBD5D9"/>
<path d="M372.708 354.502H60.6614V353.422H372.708V354.502ZM60.6614 354.502H0.141602V353.422H60.6614V354.502Z" fill="#BBD5D9"/>
<path d="M372.708 384.188H60.6614V383.108H372.708V384.188ZM60.6614 384.188H0.141602V383.108H60.6614V384.188Z" fill="#BBD5D9"/>
<path d="M373 414.351H60.9529V413.271H373V414.351ZM60.9529 414.351H0.433105V413.271H60.9529V414.351Z" fill="#BBD5D9"/>
<path d="M373 444.514H60.9529V443.434H373V444.514ZM60.9529 444.514H0.433105V443.434H60.9529V444.514Z" fill="#BBD5D9"/>
<path d="M373 473.87H60.9529V472.789H373V473.87ZM60.0218 473.87H0.433105V472.789H60.0218V473.87Z" fill="#BBD5D9"/>
<path d="M373 503.438H60.9529V502.358H373V503.438ZM60.0218 503.438H0.433105V502.358H60.0218V503.438Z" fill="#BBD5D9"/>
<path d="M373 533.008H60.9529V531.927H373V533.008ZM60.0218 533.008H0.433105V531.927H60.0218V533.008Z" fill="#BBD5D9"/>
<path d="M373 562.936H60.9529V561.855H373V562.936ZM60.0218 562.936H0.433105V561.855H60.0218V562.936Z" fill="#BBD5D9"/>
<path d="M373 592.664H60.9529V591.583H373V592.664ZM60.0218 592.664H0.433105V591.583H60.0218V592.664Z" fill="#BBD5D9"/>
<path d="M372.567 624.68H60.9529V623.599H372.567V624.68ZM60.0218 624.68H0V623.599H60.0218V624.68Z" fill="#BBD5D9"/>
<path d="M372.567 654.249H60.9529V653.168H372.567V654.249ZM60.0218 654.249H0V653.168H60.0218V654.249Z" fill="#BBD5D9"/>
<path d="M372.567 683.819H60.9529V682.738H372.567V683.819ZM60.0218 683.819H0V682.738H60.0218V683.819Z" fill="#BBD5D9"/>
<path d="M373 714.172H60.9529V713.09H373V714.172ZM60.0218 714.172H0V713.09H60.0218V714.172Z" fill="#BBD5D9"/>
<path d="M373 743.981H60.9529V742.9H373V743.981ZM60.0218 743.981H0V742.9H60.0218V743.981Z" fill="#BBD5D9"/>
<path d="M373 773.553H60.9529V772.465H373V773.553ZM60.0218 773.553H0V772.465H60.0218V773.553Z" fill="#BBD5D9"/>
<path d="M373 803.115H60.9529V802.035H373V803.115ZM60.0218 803.115H0V802.035H60.0218V803.115Z" fill="#BBD5D9"/>
<path d="M373 832.684H60.9529V831.604H373V832.684ZM60.0218 832.684H0V831.604H60.0218V832.684Z" fill="#BBD5D9"/>
<path d="M373 862.615H60.9529V861.535H373V862.615ZM60.0218 862.615H0V861.535H60.0218V862.615Z" fill="#BBD5D9"/>
<path d="M373 892.346H60.9529V891.266H373V892.346ZM60.0218 892.346H0V891.266H60.0218V892.346Z" fill="#BBD5D9"/>
<path d="M373 919.45H60.9529V918.37H373V919.465M60.0218 919.45H0.433105V918.37H60.0218V919.465" fill="#BBD5D9"/>
<path d="M373 30.842H60.9529V29.7619H373V30.842ZM60.9529 30.842H0.433105V29.7619H60.9529V30.842Z" fill="#BBD5D9"/>
<path d="M14.9104 927.077H13.9792V0.421143H14.9104V1.50995V30.2286V31.3174V57.3101V58.3989V87.1176V88.2064V117.164V118.253V146.972V148.061V176.776V177.867V206.74V207.83V236.939V238.028V266.92V268.01V296.82V297.909V326.748V327.837V356.554V357.644V386.36V387.45V416.958V418.048V447.006V448.096V476.813V477.902V506.62V507.71V536.426V537.516V566.595V567.684V596.562V597.652V628.834V629.925V658.642V659.731V688.448V689.538V719.046V720.136V749.094V750.184V778.897V779.994V808.705V809.793V838.512V839.601V868.682V869.771V898.652V899.741V925.973V927.077Z" fill="#8ADBBB"/>
<path d="M359.07 927.077H358.138V0.421204H359.07V1.51001V30.2286V31.3175V57.3102V58.399V87.1177V88.2065V117.164V118.253V146.972V148.061V176.776V177.867V206.74V207.83V236.939V238.028V266.92V268.01V296.82V297.909V326.748V327.837V356.554V357.644V386.36V387.45V416.958V418.048V447.006V448.096V476.813V477.902V506.62V507.71V536.426V537.516V566.595V567.684V596.562V597.652V628.835V629.925V658.642V659.732V688.448V689.538V719.046V720.136V749.094V750.184V778.897V779.994V808.705V809.793V838.512V839.601V868.682V869.771V898.652V899.741V925.973V927.077Z" fill="#8ADBBB"/>
</svg>
