<svg width="1280" height="453" viewBox="0 0 1280 453" fill="none" xmlns="http://www.w3.org/2000/svg">
<path d="M0 453H1280V0.167694H0V453Z" fill="#FBFBFB"/>
<path d="M209.168 452.461H1280V439.642H209.168V452.461Z" fill="#FBFBFB"/>
<path d="M209.168 439.109H1280V424.996H209.168V439.109Z" fill="#FBFBFB"/>
<path d="M209.168 424.464H1280V410.252H209.168V424.464Z" fill="#FBFBFB"/>
<path d="M209.168 409.72H1280V395.686H209.168V409.72Z" fill="#FBFBFB"/>
<path d="M209.168 395.154H1280V381.124H209.168V395.154Z" fill="#FBFBFB"/>
<path d="M209.168 380.589H1280V366.558H209.168V380.589Z" fill="#FBFBFB"/>
<path d="M209.168 366.024H1280V351.873H209.168V366.024Z" fill="#FBFBFB"/>
<path d="M1280 351.34H209.168V336.921H1278.51V336.388H209.168V322.355H1278.51V321.822H209.168V307.789H1278.51V307.256H209.168V292.018H1280V351.34Z" fill="#FBFBFB"/>
<path d="M209.168 291.486H1280V277.374H209.168V291.486Z" fill="#FBFBFB"/>
<path d="M209.168 276.843H1280V262.632H209.168V276.843Z" fill="#FBFBFB"/>
<path d="M209.168 262.1H1280V248.067H209.168V262.1Z" fill="#FBFBFB"/>
<path d="M209.168 247.533H1280V233.5H209.168V247.533Z" fill="#FBFBFB"/>
<path d="M209.168 232.968H1280V218.934H209.168V232.968Z" fill="#FBFBFB"/>
<path d="M209.168 218.402H1280V204.251H209.168V218.402Z" fill="#FBFBFB"/>
<path d="M1280 203.718H209.168V189.298H1278.51V188.766H209.168V174.733H1278.51V174.201H209.168V160.167H1278.51V159.635H209.168V145.542H1278.77V145.01H209.168V130.931H1280V203.718Z" fill="#FBFBFB"/>
<path d="M209.168 130.399H1280V116.281H209.168V130.399Z" fill="#FBFBFB"/>
<path d="M1280 115.748H209.168V101.523H1279.67V100.991H209.168V86.8809H1280V115.748Z" fill="#FBFBFB"/>
<path d="M209.168 86.3477H1280V72.3144H209.168V86.3477Z" fill="#FBFBFB"/>
<path d="M209.168 71.7831H1280V57.7499H209.168V71.7831Z" fill="#FBFBFB"/>
<path d="M209.168 57.2167H1280V43.0657H209.168V57.2167Z" fill="#FBFBFB"/>
<path d="M209.168 42.5339H1280V28.5013H209.168V42.5339Z" fill="#FBFBFB"/>
<path d="M209.168 27.968H1280V15.2668H209.168V27.968Z" fill="#FBFBFB"/>
<path d="M209.168 14.7346H1280V0.701256H209.168V14.7346Z" fill="#FBFBFB"/>
<path d="M1280 28.4735H209.168V27.9413H1280V28.4735ZM209.168 28.4735H1.48633V27.9413H209.168V28.4735Z" fill="#BBD5D9"/>
<path d="M1280 43.0962H209.168V42.564H1280V43.0962ZM209.168 43.0962H1.48633V42.564H209.168V43.0962Z" fill="#BBD5D9"/>
<path d="M1280 0.643188H209.168V0.110994H1280V0.643188ZM209.168 0.643188H1.48633V0.110994H209.168V0.643188Z" fill="#BBD5D9"/>
<path d="M1280 57.7189H209.168V57.1867H1280V57.7189ZM209.168 57.7189H1.48633V57.1867H209.168V57.7189Z" fill="#BBD5D9"/>
<path d="M1280 72.3416H209.168V71.8094H1280V72.3416ZM209.168 72.3416H1.48633V71.8094H209.168V72.3416Z" fill="#BBD5D9"/>
<path d="M1280 86.9644H209.168V86.4322H1280V86.9644ZM209.168 86.9644H1.48633V86.4322H209.168V86.9644Z" fill="#BBD5D9"/>
<path d="M1280 101.588H209.168V101.055H1280V101.588ZM209.168 101.588H1.48633V101.055H209.168V101.588Z" fill="#BBD5D9"/>
<path d="M1280 116.21H209.168V115.678H1280V116.21ZM209.168 116.21H1.48633V115.678H209.168V116.21Z" fill="#BBD5D9"/>
<path d="M1280 130.833H209.168V130.301H1280V130.833ZM209.168 130.833H1.48633V130.301H209.168V130.833Z" fill="#BBD5D9"/>
<path d="M1279 145.456H208.168V144.923H1279V145.456ZM208.168 145.456H0.486328V144.923H208.168V145.456Z" fill="#BBD5D9"/>
<path d="M1279 160.078H208.168V159.545H1279V160.078ZM208.168 160.078H0.486328V159.545H208.168V160.078Z" fill="#BBD5D9"/>
<path d="M1279 174.7H208.168V174.168H1279V174.7ZM208.168 174.7H0.486328V174.168H208.168V174.7Z" fill="#BBD5D9"/>
<path d="M1279 189.323H208.168V188.791H1279V189.323ZM208.168 189.323H0.486328V188.791H208.168V189.323Z" fill="#BBD5D9"/>
<path d="M1280 204.182H209.168V203.649H1280V204.182ZM209.168 204.182H1.48633V203.649H209.168V204.182Z" fill="#BBD5D9"/>
<path d="M1280 219.04H209.168V218.508H1280V219.04ZM209.168 219.04H1.48633V218.508H209.168V219.04Z" fill="#BBD5D9"/>
<path d="M1280 233.5H209.168V232.968H1280V233.5ZM205.973 233.5H1.48633V232.968H205.973V233.5Z" fill="#BBD5D9"/>
<path d="M1280 248.067H209.168V247.534H1280V248.067ZM205.973 248.067H1.48633V247.534H205.973V248.067Z" fill="#BBD5D9"/>
<path d="M1280 262.632H209.168V262.099H1280V262.632ZM205.973 262.632H1.48633V262.099H205.973V262.632Z" fill="#BBD5D9"/>
<path d="M1280 277.373H209.168V276.841H1280V277.373ZM205.973 277.373H1.48633V276.841H205.973V277.373Z" fill="#BBD5D9"/>
<path d="M1280 292.018H209.168V291.486H1280V292.018ZM205.973 292.018H1.48633V291.486H205.973V292.018Z" fill="#BBD5D9"/>
<path d="M1278.51 307.79H209.168V307.257H1278.51V307.79ZM205.973 307.79H0V307.257H205.973V307.79Z" fill="#BBD5D9"/>
<path d="M1278.51 322.354H209.168V321.822H1278.51V322.354ZM205.973 322.354H0V321.822H205.973V322.354Z" fill="#BBD5D9"/>
<path d="M1278.51 336.922H209.168V336.389H1278.51V336.922ZM205.973 336.922H0V336.389H205.973V336.922Z" fill="#BBD5D9"/>
<path d="M1280 351.873H209.168V351.34H1280V351.873ZM205.973 351.873H0V351.34H205.973V351.873Z" fill="#BBD5D9"/>
<path d="M1280 366.557H209.168V366.025H1280V366.557ZM205.973 366.557H0V366.025H205.973V366.557Z" fill="#BBD5D9"/>
<path d="M1280 381.124H209.168V380.588H1280V381.124ZM205.973 381.124H0V380.588H205.973V381.124Z" fill="#BBD5D9"/>
<path d="M1280 395.687H209.168V395.154H1280V395.687ZM205.973 395.687H0V395.154H205.973V395.687Z" fill="#BBD5D9"/>
<path d="M1280 410.252H209.168V409.72H1280V410.252ZM205.973 410.252H0V409.72H205.973V410.252Z" fill="#BBD5D9"/>
<path d="M1280 424.996H209.168V424.464H1280V424.996ZM205.973 424.996H0V424.464H205.973V424.996Z" fill="#BBD5D9"/>
<path d="M1280 439.641H209.168V439.109H1280V439.641ZM205.973 439.641H0V439.109H205.973V439.641Z" fill="#BBD5D9"/>
<path d="M1280 452.992H209.168V452.46H1280V453M205.973 452.992H1.48633V452.46H205.973V453" fill="#BBD5D9"/>
<path d="M1280 15.266H209.168V14.7338H1280V15.266ZM209.168 15.266H1.48633V14.7338H209.168V15.266Z" fill="#BBD5D9"/>
<path d="M0 449.28H1280V0.0560608H0V449.28Z" fill="#FBFBFB"/>
<path d="M209.168 448.744H1280V436.028H209.168V448.744Z" fill="#FBFBFB"/>
<path d="M209.168 435.5H1280V421.499H209.168V435.5Z" fill="#FBFBFB"/>
<path d="M209.168 420.971H1280V406.873H209.168V420.971Z" fill="#FBFBFB"/>
<path d="M209.168 406.345H1280V392.422H209.168V406.345Z" fill="#FBFBFB"/>
<path d="M209.168 391.896H1280V377.977H209.168V391.896Z" fill="#FBFBFB"/>
<path d="M209.168 377.446H1280V363.527H209.168V377.446Z" fill="#FBFBFB"/>
<path d="M209.168 362.997H1280V348.959H209.168V362.997Z" fill="#FBFBFB"/>
<path d="M1280 348.431H209.168V334.126H1278.51V333.597H209.168V319.676H1278.51V319.148H209.168V305.226H1278.51V304.698H209.168V289.581H1280V348.431Z" fill="#FBFBFB"/>
<path d="M209.168 289.053H1280V275.054H209.168V289.053Z" fill="#FBFBFB"/>
<path d="M209.168 274.526H1280V260.429H209.168V274.526Z" fill="#FBFBFB"/>
<path d="M209.168 259.9H1280V245.979H209.168V259.9Z" fill="#FBFBFB"/>
<path d="M209.168 245.45H1280V231.528H209.168V245.45Z" fill="#FBFBFB"/>
<path d="M209.168 231.001H1280V217.079H209.168V231.001Z" fill="#FBFBFB"/>
<path d="M209.168 216.551H1280V202.513H209.168V216.551Z" fill="#FBFBFB"/>
<path d="M1280 201.985H209.168V187.679H1278.51V187.151H209.168V173.23H1278.51V172.702H209.168V158.781H1278.51V158.252H209.168V144.272H1278.77V143.744H209.168V129.777H1280V201.985Z" fill="#FBFBFB"/>
<path d="M209.168 129.249H1280V115.243H209.168V129.249Z" fill="#FBFBFB"/>
<path d="M1280 114.715H209.168V100.603H1279.67V100.075H209.168V86.0777H1280V114.715Z" fill="#FBFBFB"/>
<path d="M209.168 85.5488H1280V71.6274H209.168V85.5488Z" fill="#FBFBFB"/>
<path d="M209.168 71.1005H1280V57.179H209.168V71.1005Z" fill="#FBFBFB"/>
<path d="M209.168 56.6501H1280V42.6119H209.168V56.6501Z" fill="#FBFBFB"/>
<path d="M209.168 42.0844H1280V28.1635H209.168V42.0844Z" fill="#FBFBFB"/>
<path d="M209.168 27.6342H1280V15.0341H209.168V27.6342Z" fill="#FBFBFB"/>
<path d="M209.168 14.5062H1280V0.584667H209.168V14.5062Z" fill="#FBFBFB"/>
<path d="M1280 28.1357H209.168V27.6079H1280V28.1357ZM209.168 28.1357H1.48633V27.6079H209.168V28.1357Z" fill="#BBD5D9"/>
<path d="M1280 42.6416H209.168V42.1138H1280V42.6416ZM209.168 42.6416H1.48633V42.1138H209.168V42.6416Z" fill="#BBD5D9"/>
<path d="M1280 0.527222H209.168V-0.000601947H1280V0.527222ZM209.168 0.527222H1.48633V-0.000601947H209.168V0.527222Z" fill="#BBD5D9"/>
<path d="M1280 57.1481H209.168V56.6202H1280V57.1481ZM209.168 57.1481H1.48633V56.6202H209.168V57.1481Z" fill="#BBD5D9"/>
<path d="M1280 71.6545H209.168V71.1267H1280V71.6545ZM209.168 71.6545H1.48633V71.1267H209.168V71.6545Z" fill="#BBD5D9"/>
<path d="M1280 86.161H209.168V85.6332H1280V86.161ZM209.168 86.161H1.48633V85.6332H209.168V86.161Z" fill="#BBD5D9"/>
<path d="M1280 100.667H209.168V100.139H1280V100.667ZM209.168 100.667H1.48633V100.139H209.168V100.667Z" fill="#BBD5D9"/>
<path d="M1280 115.173H209.168V114.645H1280V115.173ZM209.168 115.173H1.48633V114.645H209.168V115.173Z" fill="#BBD5D9"/>
<path d="M1280 129.679H209.168V129.151H1280V129.679ZM209.168 129.679H1.48633V129.151H209.168V129.679Z" fill="#BBD5D9"/>
<path d="M1279 144.186H208.168V143.658H1279V144.186ZM208.168 144.186H0.486328V143.658H208.168V144.186Z" fill="#BBD5D9"/>
<path d="M1279 158.691H208.168V158.164H1279V158.691ZM208.168 158.691H0.486328V158.164H208.168V158.691Z" fill="#BBD5D9"/>
<path d="M1279 173.198H208.168V172.67H1279V173.198ZM208.168 173.198H0.486328V172.67H208.168V173.198Z" fill="#BBD5D9"/>
<path d="M1279 187.704H208.168V187.176H1279V187.704ZM208.168 187.704H0.486328V187.176H208.168V187.704Z" fill="#BBD5D9"/>
<path d="M1280 202.444H209.168V201.917H1280V202.444ZM209.168 202.444H1.48633V201.917H209.168V202.444Z" fill="#BBD5D9"/>
<path d="M1280 217.184H209.168V216.656H1280V217.184ZM209.168 217.184H1.48633V216.656H209.168V217.184Z" fill="#BBD5D9"/>
<path d="M1280 231.529H209.168V231.001H1280V231.529ZM205.973 231.529H1.48633V231.001H205.973V231.529Z" fill="#BBD5D9"/>
<path d="M1280 245.979H209.168V245.451H1280V245.979ZM205.973 245.979H1.48633V245.451H205.973V245.979Z" fill="#BBD5D9"/>
<path d="M1280 260.429H209.168V259.9H1280V260.429ZM205.973 260.429H1.48633V259.9H205.973V260.429Z" fill="#BBD5D9"/>
<path d="M1280 275.054H209.168V274.526H1280V275.054ZM205.973 275.054H1.48633V274.526H205.973V275.054Z" fill="#BBD5D9"/>
<path d="M1280 289.581H209.168V289.053H1280V289.581ZM205.973 289.581H1.48633V289.053H205.973V289.581Z" fill="#BBD5D9"/>
<path d="M1278.51 305.227H209.168V304.698H1278.51V305.227ZM205.973 305.227H0V304.698H205.973V305.227Z" fill="#BBD5D9"/>
<path d="M1278.51 319.676H209.168V319.148H1278.51V319.676ZM205.973 319.676H0V319.148H205.973V319.676Z" fill="#BBD5D9"/>
<path d="M1278.51 334.126H209.168V333.598H1278.51V334.126ZM205.973 334.126H0V333.598H205.973V334.126Z" fill="#BBD5D9"/>
<path d="M1280 348.959H209.168V348.43H1280V348.959ZM205.973 348.959H0V348.43H205.973V348.959Z" fill="#BBD5D9"/>
<path d="M1280 363.526H209.168V362.998H1280V363.526ZM205.973 363.526H0V362.998H205.973V363.526Z" fill="#BBD5D9"/>
<path d="M1280 377.977H209.168V377.445H1280V377.977ZM205.973 377.977H0V377.445H205.973V377.977Z" fill="#BBD5D9"/>
<path d="M1280 392.423H209.168V391.895H1280V392.423ZM205.973 392.423H0V391.895H205.973V392.423Z" fill="#BBD5D9"/>
<path d="M1280 406.873H209.168V406.345H1280V406.873ZM205.973 406.873H0V406.345H205.973V406.873Z" fill="#BBD5D9"/>
<path d="M1280 421.499H209.168V420.972H1280V421.499ZM205.973 421.499H0V420.972H205.973V421.499Z" fill="#BBD5D9"/>
<path d="M1280 436.028H209.168V435.5H1280V436.028ZM205.973 436.028H0V435.5H205.973V436.028Z" fill="#BBD5D9"/>
<path d="M1280 449.273H209.168V448.745H1280V449.28M205.973 449.273H1.48633V448.745H205.973V449.28" fill="#BBD5D9"/>
<path d="M1280 15.0337H209.168V14.5059H1280V15.0337ZM209.168 15.0337H1.48633V14.5059H209.168V15.0337Z" fill="#BBD5D9"/>
<path d="M51.1669 453H47.9717V0.167816H51.1669V0.69989V14.7339V15.266V27.9679V28.5V42.5341V43.0661V57.2171V57.7492V71.7832V72.3153V86.3478V86.8806V100.99V101.523V115.748V116.28V130.399V130.931V145.01V145.542V159.635V160.167V174.201V174.733V188.766V189.298V203.718V204.251V218.402V218.934V232.968V233.5V247.534V248.066V262.099V262.631V276.842V277.374V291.486V292.018V307.257V307.789V321.823V322.355V336.388V336.921V351.341V351.873V366.024V366.557V380.588V381.124V395.154V395.686V409.72V410.252V424.464V424.996V439.109V439.641V452.46V453Z" fill="#8ADBBB"/>
<path d="M1232.2 453H1229V0.16806H1232.2V0.700134V14.7342V15.2662V27.9682V28.5003V42.5343V43.0664V57.2174V57.7495V71.7834V72.3155V86.348V86.8809V100.991V101.523V115.748V116.28V130.399V130.932V145.01V145.543V159.635V160.168V174.201V174.733V188.766V189.299V203.719V204.251V218.402V218.935V232.968V233.5V247.534V248.066V262.099V262.632V276.842V277.374V291.486V292.019V307.257V307.79V321.823V322.355V336.388V336.921V351.341V351.874V366.025V366.557V380.588V381.124V395.154V395.687V409.721V410.253V424.464V424.996V439.109V439.641V452.46V453Z" fill="#8ADBBB"/>
</svg>
