<svg width="373" height="789" viewBox="0 0 373 789" fill="none" xmlns="http://www.w3.org/2000/svg">
<path d="M0 788.934H373V1.2265H0V788.934Z" fill="#FBFBFB"/>
<path d="M60.9529 787.997H373V765.698H60.9529V787.997Z" fill="#FBFBFB"/>
<path d="M60.9529 764.771H373V740.221H60.9529V764.771Z" fill="#FBFBFB"/>
<path d="M60.9529 739.295H373V714.574H60.9529V739.295Z" fill="#FBFBFB"/>
<path d="M60.9529 713.649H373V689.236H60.9529V713.649Z" fill="#FBFBFB"/>
<path d="M60.9529 688.312H373V663.906H60.9529V688.312Z" fill="#FBFBFB"/>
<path d="M60.9529 662.975H373V638.567H60.9529V662.975Z" fill="#FBFBFB"/>
<path d="M60.9529 637.639H373V613.023H60.9529V637.639Z" fill="#FBFBFB"/>
<path d="M373 612.096H60.9529V587.012H372.567V586.086H60.9529V561.675H372.567V560.749H60.9529V536.338H372.567V535.411H60.9529V508.904H373V612.096Z" fill="#FBFBFB"/>
<path d="M60.9529 507.979H373V483.431H60.9529V507.979Z" fill="#FBFBFB"/>
<path d="M60.9529 482.506H373V457.787H60.9529V482.506Z" fill="#FBFBFB"/>
<path d="M60.9529 456.861H373V432.451H60.9529V456.861Z" fill="#FBFBFB"/>
<path d="M60.9529 431.522H373V407.111H60.9529V431.522Z" fill="#FBFBFB"/>
<path d="M60.9529 406.185H373V381.774H60.9529V406.185Z" fill="#FBFBFB"/>
<path d="M60.9529 380.849H373V356.233H60.9529V380.849Z" fill="#FBFBFB"/>
<path d="M373 355.306H60.9529V330.222H372.567V329.296H60.9529V304.885H372.567V303.959H60.9529V279.548H372.567V278.622H60.9529V254.108H372.642V253.181H60.9529V228.692H373V355.306Z" fill="#FBFBFB"/>
<path d="M60.9529 227.765H373V203.206H60.9529V227.765Z" fill="#FBFBFB"/>
<path d="M373 202.279H60.9529V177.535H372.903V176.609H60.9529V152.065H373V202.279Z" fill="#FBFBFB"/>
<path d="M60.9529 151.137H373V126.726H60.9529V151.137Z" fill="#FBFBFB"/>
<path d="M60.9529 125.802H373V101.391H60.9529V125.802Z" fill="#FBFBFB"/>
<path d="M60.9529 100.463H373V75.8475H60.9529V100.463Z" fill="#FBFBFB"/>
<path d="M60.9529 74.9229H373V50.5129H60.9529V74.9229Z" fill="#FBFBFB"/>
<path d="M60.9529 49.585H373V27.4909H60.9529V49.585Z" fill="#FBFBFB"/>
<path d="M60.9529 26.5654H373V2.15419H60.9529V26.5654Z" fill="#FBFBFB"/>
<path d="M373 50.4644H60.9529V49.5386H373V50.4644ZM60.9529 50.4644H0.433105V49.5386H60.9529V50.4644Z" fill="#BBD5D9"/>
<path d="M373 75.9009H60.9529V74.9751H373V75.9009ZM60.9529 75.9009H0.433105V74.9751H60.9529V75.9009Z" fill="#BBD5D9"/>
<path d="M373 2.05322H60.9529V1.12746H373V2.05322ZM60.9529 2.05322H0.433105V1.12746H60.9529V2.05322Z" fill="#BBD5D9"/>
<path d="M373 101.337H60.9529V100.411H373V101.337ZM60.9529 101.337H0.433105V100.411H60.9529V101.337Z" fill="#BBD5D9"/>
<path d="M373 126.773H60.9529V125.848H373V126.773ZM60.9529 126.773H0.433105V125.848H60.9529V126.773Z" fill="#BBD5D9"/>
<path d="M373 152.21H60.9529V151.284H373V152.21ZM60.9529 152.21H0.433105V151.284H60.9529V152.21Z" fill="#BBD5D9"/>
<path d="M373 177.647H60.9529V176.722H373V177.647ZM60.9529 177.647H0.433105V176.722H60.9529V177.647Z" fill="#BBD5D9"/>
<path d="M373 203.083H60.9529V202.157H373V203.083ZM60.9529 203.083H0.433105V202.157H60.9529V203.083Z" fill="#BBD5D9"/>
<path d="M373 228.52H60.9529V227.594H373V228.52ZM60.9529 228.52H0.433105V227.594H60.9529V228.52Z" fill="#BBD5D9"/>
<path d="M372.709 253.957H60.6615V253.031H372.709V253.957ZM60.6615 253.957H0.141724V253.031H60.6615V253.957Z" fill="#BBD5D9"/>
<path d="M372.709 279.392H60.6615V278.466H372.709V279.392ZM60.6615 279.392H0.141724V278.466H60.6615V279.392Z" fill="#BBD5D9"/>
<path d="M372.709 304.828H60.6615V303.902H372.709V304.828ZM60.6615 304.828H0.141724V303.902H60.6615V304.828Z" fill="#BBD5D9"/>
<path d="M372.709 330.265H60.6615V329.339H372.709V330.265ZM60.6615 330.265H0.141724V329.339H60.6615V330.265Z" fill="#BBD5D9"/>
<path d="M373 356.111H60.9529V355.185H373V356.111ZM60.9529 356.111H0.433105V355.185H60.9529V356.111Z" fill="#BBD5D9"/>
<path d="M373 381.958H60.9529V381.033H373V381.958ZM60.9529 381.958H0.433105V381.033H60.9529V381.958Z" fill="#BBD5D9"/>
<path d="M373 407.111H60.9529V406.185H373V407.111ZM60.0218 407.111H0.433105V406.185H60.0218V407.111Z" fill="#BBD5D9"/>
<path d="M373 432.45H60.9529V431.523H373V432.45ZM60.0218 432.45H0.433105V431.523H60.0218V432.45Z" fill="#BBD5D9"/>
<path d="M373 457.786H60.9529V456.86H373V457.786ZM60.0218 457.786H0.433105V456.86H60.0218V457.786Z" fill="#BBD5D9"/>
<path d="M373 483.429H60.9529V482.503H373V483.429ZM60.0218 483.429H0.433105V482.503H60.0218V483.429Z" fill="#BBD5D9"/>
<path d="M373 508.904H60.9529V507.977H373V508.904ZM60.0218 508.904H0.433105V507.977H60.0218V508.904Z" fill="#BBD5D9"/>
<path d="M372.567 536.339H60.9529V535.412H372.567V536.339ZM60.0218 536.339H0V535.412H60.0218V536.339Z" fill="#BBD5D9"/>
<path d="M372.567 561.675H60.9529V560.748H372.567V561.675ZM60.0218 561.675H0V560.748H60.0218V561.675Z" fill="#BBD5D9"/>
<path d="M372.567 587.014H60.9529V586.087H372.567V587.014ZM60.0218 587.014H0V586.087H60.0218V587.014Z" fill="#BBD5D9"/>
<path d="M373 613.023H60.9529V612.096H373V613.023ZM60.0218 613.023H0V612.096H60.0218V613.023Z" fill="#BBD5D9"/>
<path d="M373 638.566H60.9529V637.64H373V638.566ZM60.0218 638.566H0V637.64H60.0218V638.566Z" fill="#BBD5D9"/>
<path d="M373 663.905H60.9529V662.972H373V663.905ZM60.0218 663.905H0V662.972H60.0218V663.905Z" fill="#BBD5D9"/>
<path d="M373 689.237H60.9529V688.311H373V689.237ZM60.0218 689.237H0V688.311H60.0218V689.237Z" fill="#BBD5D9"/>
<path d="M373 714.573H60.9529V713.647H373V714.573ZM60.0218 714.573H0V713.647H60.0218V714.573Z" fill="#BBD5D9"/>
<path d="M373 740.221H60.9529V739.295H373V740.221ZM60.0218 740.221H0V739.295H60.0218V740.221Z" fill="#BBD5D9"/>
<path d="M373 765.696H60.9529V764.77H373V765.696ZM60.0218 765.696H0V764.77H60.0218V765.696Z" fill="#BBD5D9"/>
<path d="M373 788.921H60.9529V787.995H373V788.934M60.0218 788.921H0.433105V787.995H60.0218V788.934" fill="#BBD5D9"/>
<path d="M373 27.4897H60.9529V26.564H373V27.4897ZM60.9529 27.4897H0.433105V26.564H60.9529V27.4897Z" fill="#BBD5D9"/>
<path d="M0 782.464H373V1.03217H0V782.464Z" fill="#FBFBFB"/>
<path d="M60.9529 781.532H373V759.411H60.9529V781.532Z" fill="#FBFBFB"/>
<path d="M60.9529 758.492H373V734.138H60.9529V758.492Z" fill="#FBFBFB"/>
<path d="M60.9529 733.22H373V708.696H60.9529V733.22Z" fill="#FBFBFB"/>
<path d="M60.9529 707.776H373V683.558H60.9529V707.776Z" fill="#FBFBFB"/>
<path d="M60.9529 682.643H373V658.431H60.9529V682.643Z" fill="#FBFBFB"/>
<path d="M60.9529 657.507H373V633.294H60.9529V657.507Z" fill="#FBFBFB"/>
<path d="M60.9529 632.373H373V607.953H60.9529V632.373Z" fill="#FBFBFB"/>
<path d="M373 607.034H60.9529V582.151H372.567V581.231H60.9529V557.015H372.567V556.097H60.9529V531.88H372.567V530.961H60.9529V504.665H373V607.034Z" fill="#FBFBFB"/>
<path d="M60.9529 503.746H373V479.394H60.9529V503.746Z" fill="#FBFBFB"/>
<path d="M60.9529 478.476H373V453.954H60.9529V478.476Z" fill="#FBFBFB"/>
<path d="M60.9529 453.035H373V428.819H60.9529V453.035Z" fill="#FBFBFB"/>
<path d="M60.9529 427.898H373V403.681H60.9529V427.898Z" fill="#FBFBFB"/>
<path d="M60.9529 402.763H373V378.547H60.9529V402.763Z" fill="#FBFBFB"/>
<path d="M60.9529 377.628H373V353.208H60.9529V377.628Z" fill="#FBFBFB"/>
<path d="M373 352.289H60.9529V327.405H372.567V326.486H60.9529V302.27H372.567V301.351H60.9529V277.135H372.567V276.216H60.9529V251.897H372.642V250.978H60.9529V226.684H373V352.289Z" fill="#FBFBFB"/>
<path d="M60.9529 225.765H373V201.401H60.9529V225.765Z" fill="#FBFBFB"/>
<path d="M373 200.482H60.9529V175.935H372.903V175.016H60.9529V150.668H373V200.482Z" fill="#FBFBFB"/>
<path d="M60.9529 149.748H373V125.531H60.9529V149.748Z" fill="#FBFBFB"/>
<path d="M60.9529 124.614H373V100.398H60.9529V124.614Z" fill="#FBFBFB"/>
<path d="M60.9529 99.478H373V75.0583H60.9529V99.478Z" fill="#FBFBFB"/>
<path d="M60.9529 74.1406H373V49.9251H60.9529V74.1406Z" fill="#FBFBFB"/>
<path d="M60.9529 49.0044H373V27.0864H60.9529V49.0044Z" fill="#FBFBFB"/>
<path d="M60.9529 26.168H373V1.95122H60.9529V26.168Z" fill="#FBFBFB"/>
<path d="M373 49.877H60.9529V48.9588H373V49.877ZM60.9529 49.877H0.433105V48.9588H60.9529V49.877Z" fill="#BBD5D9"/>
<path d="M373 75.1099H60.9529V74.1917H373V75.1099ZM60.9529 75.1099H0.433105V74.1917H60.9529V75.1099Z" fill="#BBD5D9"/>
<path d="M373 1.85156H60.9529V0.933406H373V1.85156ZM60.9529 1.85156H0.433105V0.933406H60.9529V1.85156Z" fill="#BBD5D9"/>
<path d="M373 100.344H60.9529V99.4261H373V100.344ZM60.9529 100.344H0.433105V99.4261H60.9529V100.344Z" fill="#BBD5D9"/>
<path d="M373 125.578H60.9529V124.66H373V125.578ZM60.9529 125.578H0.433105V124.66H60.9529V125.578Z" fill="#BBD5D9"/>
<path d="M373 150.812H60.9529V149.894H373V150.812ZM60.9529 150.812H0.433105V149.894H60.9529V150.812Z" fill="#BBD5D9"/>
<path d="M373 176.045H60.9529V175.127H373V176.045ZM60.9529 176.045H0.433105V175.127H60.9529V176.045Z" fill="#BBD5D9"/>
<path d="M373 201.28H60.9529V200.362H373V201.28ZM60.9529 201.28H0.433105V200.362H60.9529V201.28Z" fill="#BBD5D9"/>
<path d="M373 226.513H60.9529V225.595H373V226.513ZM60.9529 226.513H0.433105V225.595H60.9529V226.513Z" fill="#BBD5D9"/>
<path d="M372.709 251.748H60.6615V250.83H372.709V251.748ZM60.6615 251.748H0.141724V250.83H60.6615V251.748Z" fill="#BBD5D9"/>
<path d="M372.709 276.98H60.6615V276.062H372.709V276.98ZM60.6615 276.98H0.141724V276.062H60.6615V276.98Z" fill="#BBD5D9"/>
<path d="M372.709 302.214H60.6615V301.296H372.709V302.214ZM60.6615 302.214H0.141724V301.296H60.6615V302.214Z" fill="#BBD5D9"/>
<path d="M372.709 327.448H60.6615V326.53H372.709V327.448ZM60.6615 327.448H0.141724V326.53H60.6615V327.448Z" fill="#BBD5D9"/>
<path d="M373 353.089H60.9529V352.171H373V353.089ZM60.9529 353.089H0.433105V352.171H60.9529V353.089Z" fill="#BBD5D9"/>
<path d="M373 378.729H60.9529V377.811H373V378.729ZM60.9529 378.729H0.433105V377.811H60.9529V378.729Z" fill="#BBD5D9"/>
<path d="M373 403.683H60.9529V402.764H373V403.683ZM60.0218 403.683H0.433105V402.764H60.0218V403.683Z" fill="#BBD5D9"/>
<path d="M373 428.818H60.9529V427.9H373V428.818ZM60.0218 428.818H0.433105V427.9H60.0218V428.818Z" fill="#BBD5D9"/>
<path d="M373 453.954H60.9529V453.035H373V453.954ZM60.0218 453.954H0.433105V453.035H60.0218V453.954Z" fill="#BBD5D9"/>
<path d="M373 479.394H60.9529V478.475H373V479.394ZM60.0218 479.394H0.433105V478.475H60.0218V479.394Z" fill="#BBD5D9"/>
<path d="M373 504.665H60.9529V503.746H373V504.665ZM60.0218 504.665H0.433105V503.746H60.0218V504.665Z" fill="#BBD5D9"/>
<path d="M372.567 531.88H60.9529V530.961H372.567V531.88ZM60.0218 531.88H0V530.961H60.0218V531.88Z" fill="#BBD5D9"/>
<path d="M372.567 557.016H60.9529V556.097H372.567V557.016ZM60.0218 557.016H0V556.097H60.0218V557.016Z" fill="#BBD5D9"/>
<path d="M372.567 582.152H60.9529V581.232H372.567V582.152ZM60.0218 582.152H0V581.232H60.0218V582.152Z" fill="#BBD5D9"/>
<path d="M373 607.953H60.9529V607.034H373V607.953ZM60.0218 607.953H0V607.034H60.0218V607.953Z" fill="#BBD5D9"/>
<path d="M373 633.293H60.9529V632.374H373V633.293ZM60.0218 633.293H0V632.374H60.0218V633.293Z" fill="#BBD5D9"/>
<path d="M373 658.43H60.9529V657.505H373V658.43ZM60.0218 658.43H0V657.505H60.0218V658.43Z" fill="#BBD5D9"/>
<path d="M373 683.56H60.9529V682.642H373V683.56ZM60.0218 683.56H0V682.642H60.0218V683.56Z" fill="#BBD5D9"/>
<path d="M373 708.695H60.9529V707.777H373V708.695ZM60.0218 708.695H0V707.777H60.0218V708.695Z" fill="#BBD5D9"/>
<path d="M373 734.138H60.9529V733.22H373V734.138ZM60.0218 734.138H0V733.22H60.0218V734.138Z" fill="#BBD5D9"/>
<path d="M373 759.411H60.9529V758.493H373V759.411ZM60.0218 759.411H0V758.493H60.0218V759.411Z" fill="#BBD5D9"/>
<path d="M373 782.451H60.9529V781.533H373V782.464M60.0218 782.451H0.433105V781.533H60.0218V782.464" fill="#BBD5D9"/>
<path d="M373 27.0854H60.9529V26.1673H373V27.0854ZM60.9529 27.0854H0.433105V26.1673H60.9529V27.0854Z" fill="#BBD5D9"/>
<path d="M14.9104 788.934H13.9792V1.22601H14.9104V2.15155V26.5639V27.4895V49.5847V50.5103V74.9227V75.8482V100.464V101.39V125.802V126.728V151.137V152.064V176.608V177.535V202.279V203.205V227.764V228.691V253.181V254.107V278.621V279.547V303.958V304.885V329.295V330.221V355.305V356.231V380.847V381.773V406.185V407.111V431.522V432.449V456.859V457.785V482.504V483.43V507.978V508.904V535.411V536.338V560.749V561.675V586.086V587.013V612.096V613.023V637.639V638.565V662.973V663.905V688.311V689.236V713.648V714.574V739.295V740.22V764.771V765.696V787.995V788.934Z" fill="#DB8A92"/>
<path d="M359.069 788.934H358.138V1.2265H359.069V2.15204V26.5644V27.49V49.5852V50.5107V74.9232V75.8487V100.465V101.39V125.802V126.728V151.138V152.065V176.609V177.535V202.279V203.205V227.765V228.691V253.181V254.108V278.622V279.548V303.959V304.885V329.296V330.222V355.306V356.232V380.848V381.774V406.185V407.111V431.523V432.449V456.86V457.786V482.505V483.431V507.978V508.905V535.412V536.339V560.75V561.676V586.086V587.013V612.096V613.023V637.639V638.565V662.973V663.905V688.311V689.237V713.649V714.574V739.295V740.221V764.771V765.697V787.995V788.934Z" fill="#DB8A92"/>
</svg>
