<svg width="1280" height="675" viewBox="0 0 1280 675" fill="none" xmlns="http://www.w3.org/2000/svg">
<path d="M0 674.627H1280V0.636536H0V674.627Z" fill="#FBFBFB"/>
<path d="M209.168 673.825H1280V654.745H209.168V673.825Z" fill="#FBFBFB"/>
<path d="M209.168 653.952H1280V632.946H209.168V653.952Z" fill="#FBFBFB"/>
<path d="M209.168 632.154H1280V611.002H209.168V632.154Z" fill="#FBFBFB"/>
<path d="M209.168 610.21H1280V589.322H209.168V610.21Z" fill="#FBFBFB"/>
<path d="M209.168 588.531H1280V567.648H209.168V588.531Z" fill="#FBFBFB"/>
<path d="M209.168 566.852H1280V545.968H209.168V566.852Z" fill="#FBFBFB"/>
<path d="M209.168 545.173H1280V524.111H209.168V545.173Z" fill="#FBFBFB"/>
<path d="M1280 523.318H209.168V501.856H1278.51V501.063H209.168V480.176H1278.51V479.384H209.168V458.497H1278.51V457.704H209.168V435.023H1280V523.318Z" fill="#FBFBFB"/>
<path d="M209.168 434.232H1280V413.228H209.168V434.232Z" fill="#FBFBFB"/>
<path d="M209.168 412.436H1280V391.286H209.168V412.436Z" fill="#FBFBFB"/>
<path d="M209.168 390.493H1280V369.607H209.168V390.493Z" fill="#FBFBFB"/>
<path d="M209.168 368.813H1280V347.925H209.168V368.813Z" fill="#FBFBFB"/>
<path d="M209.168 347.133H1280V326.246H209.168V347.133Z" fill="#FBFBFB"/>
<path d="M209.168 325.455H1280V304.392H209.168V325.455Z" fill="#FBFBFB"/>
<path d="M1280 303.599H209.168V282.136H1278.51V281.344H209.168V260.458H1278.51V259.665H209.168V238.778H1278.51V237.986H209.168V217.011H1278.77V216.218H209.168V195.264H1280V303.599Z" fill="#FBFBFB"/>
<path d="M209.168 194.471H1280V173.457H209.168V194.471Z" fill="#FBFBFB"/>
<path d="M1280 172.665H209.168V151.493H1279.67V150.7H209.168V129.699H1280V172.665Z" fill="#FBFBFB"/>
<path d="M209.168 128.906H1280V108.019H209.168V128.906Z" fill="#FBFBFB"/>
<path d="M209.168 107.228H1280V86.3411H209.168V107.228Z" fill="#FBFBFB"/>
<path d="M209.168 85.5474H1280V64.4852H209.168V85.5474Z" fill="#FBFBFB"/>
<path d="M209.168 63.6938H1280V42.8078H209.168V63.6938Z" fill="#FBFBFB"/>
<path d="M209.168 42.0142H1280V23.1097H209.168V42.0142Z" fill="#FBFBFB"/>
<path d="M209.168 22.3176H1280V1.43052H209.168V22.3176Z" fill="#FBFBFB"/>
<path d="M1280 42.7664H209.168V41.9742H1280V42.7664ZM209.168 42.7664H1.48633V41.9742H209.168V42.7664Z" fill="#BBD5D9"/>
<path d="M1280 64.5308H209.168V63.7386H1280V64.5308ZM209.168 64.5308H1.48633V63.7386H209.168V64.5308Z" fill="#BBD5D9"/>
<path d="M1280 1.34424H209.168V0.552126H1280V1.34424ZM209.168 1.34424H1.48633V0.552126H209.168V1.34424Z" fill="#BBD5D9"/>
<path d="M1280 86.2949H209.168V85.5028H1280V86.2949ZM209.168 86.2949H1.48633V85.5028H209.168V86.2949Z" fill="#BBD5D9"/>
<path d="M1280 108.059H209.168V107.267H1280V108.059ZM209.168 108.059H1.48633V107.267H209.168V108.059Z" fill="#BBD5D9"/>
<path d="M1280 129.823H209.168V129.031H1280V129.823ZM209.168 129.823H1.48633V129.031H209.168V129.823Z" fill="#BBD5D9"/>
<path d="M1280 151.589H209.168V150.797H1280V151.589ZM209.168 151.589H1.48633V150.797H209.168V151.589Z" fill="#BBD5D9"/>
<path d="M1280 173.352H209.168V172.56H1280V173.352ZM209.168 173.352H1.48633V172.56H209.168V173.352Z" fill="#BBD5D9"/>
<path d="M1280 195.117H209.168V194.325H1280V195.117ZM209.168 195.117H1.48633V194.325H209.168V195.117Z" fill="#BBD5D9"/>
<path d="M1279 216.881H208.168V216.089H1279V216.881ZM208.168 216.881H0.486328V216.089H208.168V216.881Z" fill="#BBD5D9"/>
<path d="M1279 238.645H208.168V237.853H1279V238.645ZM208.168 238.645H0.486328V237.853H208.168V238.645Z" fill="#BBD5D9"/>
<path d="M1279 260.409H208.168V259.617H1279V260.409ZM208.168 260.409H0.486328V259.617H208.168V260.409Z" fill="#BBD5D9"/>
<path d="M1279 282.173H208.168V281.381H1279V282.173ZM208.168 282.173H0.486328V281.381H208.168V282.173Z" fill="#BBD5D9"/>
<path d="M1280 304.288H209.168V303.496H1280V304.288ZM209.168 304.288H1.48633V303.496H209.168V304.288Z" fill="#BBD5D9"/>
<path d="M1280 326.404H209.168V325.612H1280V326.404ZM209.168 326.404H1.48633V325.612H209.168V326.404Z" fill="#BBD5D9"/>
<path d="M1280 347.926H209.168V347.133H1280V347.926ZM205.973 347.926H1.48633V347.133H205.973V347.926Z" fill="#BBD5D9"/>
<path d="M1280 369.606H209.168V368.814H1280V369.606ZM205.973 369.606H1.48633V368.814H205.973V369.606Z" fill="#BBD5D9"/>
<path d="M1280 391.285H209.168V390.492H1280V391.285ZM205.973 391.285H1.48633V390.492H205.973V391.285Z" fill="#BBD5D9"/>
<path d="M1280 413.226H209.168V412.433H1280V413.226ZM205.973 413.226H1.48633V412.433H205.973V413.226Z" fill="#BBD5D9"/>
<path d="M1280 435.023H209.168V434.231H1280V435.023ZM205.973 435.023H1.48633V434.231H205.973V435.023Z" fill="#BBD5D9"/>
<path d="M1278.51 458.498H209.168V457.705H1278.51V458.498ZM205.973 458.498H0V457.705H205.973V458.498Z" fill="#BBD5D9"/>
<path d="M1278.51 480.176H209.168V479.383H1278.51V480.176ZM205.973 480.176H0V479.383H205.973V480.176Z" fill="#BBD5D9"/>
<path d="M1278.51 501.857H209.168V501.064H1278.51V501.857ZM205.973 501.857H0V501.064H205.973V501.857Z" fill="#BBD5D9"/>
<path d="M1280 524.111H209.168V523.318H1280V524.111ZM205.973 524.111H0V523.318H205.973V524.111Z" fill="#BBD5D9"/>
<path d="M1280 545.967H209.168V545.174H1280V545.967ZM205.973 545.967H0V545.174H205.973V545.967Z" fill="#BBD5D9"/>
<path d="M1280 567.647H209.168V566.85H1280V567.647ZM205.973 567.647H0V566.85H205.973V567.647Z" fill="#BBD5D9"/>
<path d="M1280 589.323H209.168V588.53H1280V589.323ZM205.973 589.323H0V588.53H205.973V589.323Z" fill="#BBD5D9"/>
<path d="M1280 611.001H209.168V610.209H1280V611.001ZM205.973 611.001H0V610.209H205.973V611.001Z" fill="#BBD5D9"/>
<path d="M1280 632.946H209.168V632.154H1280V632.946ZM205.973 632.946H0V632.154H205.973V632.946Z" fill="#BBD5D9"/>
<path d="M1280 654.744H209.168V653.952H1280V654.744ZM205.973 654.744H0V653.952H205.973V654.744Z" fill="#BBD5D9"/>
<path d="M1280 674.616H209.168V673.823H1280V674.627M205.973 674.616H1.48633V673.823H205.973V674.627" fill="#BBD5D9"/>
<path d="M1280 23.1084H209.168V22.3163H1280V23.1084ZM209.168 23.1084H1.48633V22.3163H209.168V23.1084Z" fill="#BBD5D9"/>
<path d="M0 669.091H1280V0.47052H0V669.091Z" fill="#FBFBFB"/>
<path d="M209.168 668.293H1280V649.366H209.168V668.293Z" fill="#FBFBFB"/>
<path d="M209.168 648.58H1280V627.741H209.168V648.58Z" fill="#FBFBFB"/>
<path d="M209.168 626.956H1280V605.972H209.168V626.956Z" fill="#FBFBFB"/>
<path d="M209.168 605.186H1280V584.464H209.168V605.186Z" fill="#FBFBFB"/>
<path d="M209.168 583.68H1280V562.964H209.168V583.68Z" fill="#FBFBFB"/>
<path d="M209.168 562.174H1280V541.456H209.168V562.174Z" fill="#FBFBFB"/>
<path d="M209.168 540.668H1280V519.774H209.168V540.668Z" fill="#FBFBFB"/>
<path d="M1280 518.987H209.168V497.696H1278.51V496.909H209.168V476.189H1278.51V475.403H209.168V454.683H1278.51V453.896H209.168V431.396H1280V518.987Z" fill="#FBFBFB"/>
<path d="M209.168 430.61H1280V409.774H209.168V430.61Z" fill="#FBFBFB"/>
<path d="M209.168 408.988H1280V388.006H209.168V408.988Z" fill="#FBFBFB"/>
<path d="M209.168 387.22H1280V366.5H209.168V387.22Z" fill="#FBFBFB"/>
<path d="M209.168 365.712H1280V344.991H209.168V365.712Z" fill="#FBFBFB"/>
<path d="M209.168 344.206H1280V323.485H209.168V344.206Z" fill="#FBFBFB"/>
<path d="M209.168 322.699H1280V301.805H209.168V322.699Z" fill="#FBFBFB"/>
<path d="M1280 301.019H209.168V279.727H1278.51V278.941H209.168V258.221H1278.51V257.435H209.168V236.714H1278.51V235.928H209.168V215.12H1278.77V214.334H209.168V193.546H1280V301.019Z" fill="#FBFBFB"/>
<path d="M209.168 192.76H1280V171.913H209.168V192.76Z" fill="#FBFBFB"/>
<path d="M1280 171.127H209.168V150.124H1279.67V149.338H209.168V128.504H1280V171.127Z" fill="#FBFBFB"/>
<path d="M209.168 127.717H1280V106.996H209.168V127.717Z" fill="#FBFBFB"/>
<path d="M209.168 106.212H1280V85.4917H209.168V106.212Z" fill="#FBFBFB"/>
<path d="M209.168 84.7046H1280V63.8102H209.168V84.7046Z" fill="#FBFBFB"/>
<path d="M209.168 63.0249H1280V42.3053H209.168V63.0249Z" fill="#FBFBFB"/>
<path d="M209.168 41.5173H1280V22.7635H209.168V41.5173Z" fill="#FBFBFB"/>
<path d="M209.168 21.9778H1280V1.25708H209.168V21.9778Z" fill="#FBFBFB"/>
<path d="M1280 42.2639H209.168V41.4783H1280V42.2639ZM209.168 42.2639H1.48633V41.4783H209.168V42.2639Z" fill="#BBD5D9"/>
<path d="M1280 63.8542H209.168V63.0686H1280V63.8542ZM209.168 63.8542H1.48633V63.0686H209.168V63.8542Z" fill="#BBD5D9"/>
<path d="M1280 1.17163H209.168V0.386024H1280V1.17163ZM209.168 1.17163H1.48633V0.386024H209.168V1.17163Z" fill="#BBD5D9"/>
<path d="M1280 85.4456H209.168V84.6599H1280V85.4456ZM209.168 85.4456H1.48633V84.6599H209.168V85.4456Z" fill="#BBD5D9"/>
<path d="M1280 107.037H209.168V106.251H1280V107.037ZM209.168 107.037H1.48633V106.251H209.168V107.037Z" fill="#BBD5D9"/>
<path d="M1280 128.628H209.168V127.842H1280V128.628ZM209.168 128.628H1.48633V127.842H209.168V128.628Z" fill="#BBD5D9"/>
<path d="M1280 150.218H209.168V149.433H1280V150.218ZM209.168 150.218H1.48633V149.433H209.168V150.218Z" fill="#BBD5D9"/>
<path d="M1280 171.81H209.168V171.024H1280V171.81ZM209.168 171.81H1.48633V171.024H209.168V171.81Z" fill="#BBD5D9"/>
<path d="M1280 193.4H209.168V192.614H1280V193.4ZM209.168 193.4H1.48633V192.614H209.168V193.4Z" fill="#BBD5D9"/>
<path d="M1279 214.992H208.168V214.206H1279V214.992ZM208.168 214.992H0.486328V214.206H208.168V214.992Z" fill="#BBD5D9"/>
<path d="M1279 236.581H208.168V235.796H1279V236.581ZM208.168 236.581H0.486328V235.796H208.168V236.581Z" fill="#BBD5D9"/>
<path d="M1279 258.173H208.168V257.387H1279V258.173ZM208.168 258.173H0.486328V257.387H208.168V258.173Z" fill="#BBD5D9"/>
<path d="M1279 279.764H208.168V278.978H1279V279.764ZM208.168 279.764H0.486328V278.978H208.168V279.764Z" fill="#BBD5D9"/>
<path d="M1280 301.703H209.168V300.918H1280V301.703ZM209.168 301.703H1.48633V300.918H209.168V301.703Z" fill="#BBD5D9"/>
<path d="M1280 323.641H209.168V322.856H1280V323.641ZM209.168 323.641H1.48633V322.856H209.168V323.641Z" fill="#BBD5D9"/>
<path d="M1280 344.993H209.168V344.206H1280V344.993ZM205.973 344.993H1.48633V344.206H205.973V344.993Z" fill="#BBD5D9"/>
<path d="M1280 366.499H209.168V365.713H1280V366.499ZM205.973 366.499H1.48633V365.713H205.973V366.499Z" fill="#BBD5D9"/>
<path d="M1280 388.006H209.168V387.22H1280V388.006ZM205.973 388.006H1.48633V387.22H205.973V388.006Z" fill="#BBD5D9"/>
<path d="M1280 409.774H209.168V408.988H1280V409.774ZM205.973 409.774H1.48633V408.988H205.973V409.774Z" fill="#BBD5D9"/>
<path d="M1280 431.396H209.168V430.61H1280V431.396ZM205.973 431.396H1.48633V430.61H205.973V431.396Z" fill="#BBD5D9"/>
<path d="M1278.51 454.683H209.168V453.896H1278.51V454.683ZM205.973 454.683H0V453.896H205.973V454.683Z" fill="#BBD5D9"/>
<path d="M1278.51 476.189H209.168V475.403H1278.51V476.189ZM205.973 476.189H0V475.403H205.973V476.189Z" fill="#BBD5D9"/>
<path d="M1278.51 497.697H209.168V496.91H1278.51V497.697ZM205.973 497.697H0V496.91H205.973V497.697Z" fill="#BBD5D9"/>
<path d="M1280 519.773H209.168V518.987H1280V519.773ZM205.973 519.773H0V518.987H205.973V519.773Z" fill="#BBD5D9"/>
<path d="M1280 541.455H209.168V540.669H1280V541.455ZM205.973 541.455H0V540.669H205.973V541.455Z" fill="#BBD5D9"/>
<path d="M1280 562.963H209.168V562.172H1280V562.963ZM205.973 562.963H0V562.172H205.973V562.963Z" fill="#BBD5D9"/>
<path d="M1280 584.465H209.168V583.68H1280V584.465ZM205.973 584.465H0V583.68H205.973V584.465Z" fill="#BBD5D9"/>
<path d="M1280 605.972H209.168V605.186H1280V605.972ZM205.973 605.972H0V605.186H205.973V605.972Z" fill="#BBD5D9"/>
<path d="M1280 627.742H209.168V626.956H1280V627.742ZM205.973 627.742H0V626.956H205.973V627.742Z" fill="#BBD5D9"/>
<path d="M1280 649.366H209.168V648.58H1280V649.366ZM205.973 649.366H0V648.58H205.973V649.366Z" fill="#BBD5D9"/>
<path d="M1280 669.08H209.168V668.294H1280V669.091M205.973 669.08H1.48633V668.294H205.973V669.091" fill="#BBD5D9"/>
<path d="M1280 22.7629H209.168V21.9773H1280V22.7629ZM209.168 22.7629H1.48633V21.9773H209.168V22.7629Z" fill="#BBD5D9"/>
<path d="M51.1669 674.627H47.9717V0.63678H51.1669V1.42871V22.3168V23.1087V42.0142V42.8061V63.6942V64.4861V85.5483V86.3403V107.228V108.02V128.906V129.699V150.7V151.493V172.664V173.457V194.471V195.264V216.218V217.011V237.986V238.778V259.665V260.458V281.344V282.137V303.599V304.392V325.454V326.246V347.133V347.926V368.813V369.606V390.492V391.285V412.435V413.228V434.232V435.024V457.704V458.497V479.384V480.177V501.063V501.856V523.318V524.111V545.174V545.966V566.85V567.648V588.53V589.322V610.21V611.002V632.154V632.946V653.952V654.744V673.824V674.627Z" fill="#DB8A92"/>
<path d="M1232.2 674.627H1229V0.63678H1232.2V1.42871V22.3168V23.1087V42.0142V42.8061V63.6942V64.4861V85.5483V86.3403V107.228V108.02V128.906V129.699V150.7V151.493V172.664V173.457V194.471V195.264V216.218V217.011V237.986V238.778V259.665V260.458V281.344V282.137V303.599V304.392V325.454V326.246V347.133V347.926V368.813V369.606V390.492V391.285V412.435V413.228V434.232V435.024V457.704V458.497V479.384V480.177V501.063V501.856V523.318V524.111V545.174V545.966V566.85V567.648V588.53V589.322V610.21V611.002V632.154V632.946V653.952V654.744V673.824V674.627Z" fill="#DB8A92"/>
</svg>
