<svg width="56" height="57" viewBox="0 0 56 57" fill="none" xmlns="http://www.w3.org/2000/svg">
<path d="M10.4808 48.0466C7.84702 47.5216 5.83277 45.4899 5.14852 42.9856C2.55677 33.4534 2.55677 23.9124 5.14852 14.3819C5.83452 11.8776 7.84527 9.84763 10.4808 9.32088C22.1935 6.98288 33.915 6.98288 45.6278 9.32088C48.2615 9.84413 50.2775 11.8811 50.96 14.3819C53.5518 23.9141 53.5518 33.4551 50.96 42.9839C50.2793 45.4916 48.265 47.5216 45.6278 48.0466C33.915 50.3846 22.1953 50.3846 10.4808 48.0466ZM42.3763 41.0169C42.9555 40.8909 43.4315 40.4831 43.6415 39.9266C45.3828 35.3346 45.4563 30.0829 45.5035 25.1496C45.5158 24.1766 44.7265 23.3804 43.7553 23.3804H24.5053C23.5393 23.3804 22.7553 24.1661 22.7553 25.1304V40.8804C22.7553 41.8464 23.5393 42.6304 24.5053 42.6304C32.5483 42.6321 36.505 42.2979 42.3763 41.0169ZM16.7738 36.8991C17.22 36.7049 17.6698 36.5089 18.1195 36.3094C18.7355 36.0136 19.2518 35.3381 19.2518 34.6784V25.1566C19.2518 25.1496 19.2518 25.1426 19.2518 25.1339C19.2518 22.2359 21.6055 19.8839 24.367 19.8979C24.416 19.8891 24.4598 19.8839 24.5053 19.8839H29.351C30.2313 19.8839 30.8053 19.4989 30.387 18.5609C29.6573 16.9929 28.945 15.4441 28.2643 13.9199C27.8583 13.0116 26.7785 12.6249 25.886 13.0676C20.4908 15.7539 14.7753 18.7709 9.40802 21.4869C8.58027 21.9069 8.22327 22.8991 8.59427 23.7479C10.2883 27.6399 12.3515 31.8311 14.518 36.0906C14.938 36.9131 15.9268 37.2666 16.7738 36.8991Z" fill="#DDB725"/>
</svg>
