<svg width="56" height="57" viewBox="0 0 56 57" fill="none" xmlns="http://www.w3.org/2000/svg">
<path d="M14 7.62695C11.1055 7.62695 8.75004 9.98245 8.75004 12.877C8.75004 15.7715 11.1055 18.127 14 18.127C16.8945 18.127 19.25 15.7715 19.25 12.877C19.25 9.98245 16.8945 7.62695 14 7.62695ZM35.8477 9.39063C31.3568 9.33375 26.8639 9.68211 22.4014 10.4434C22.6289 11.2134 22.75 12.037 22.75 12.877C22.75 14.1545 22.471 15.3804 21.981 16.4829C29.681 16.8154 34.125 18.232 34.125 24.252C34.125 26.7195 32.7792 30.7271 24.4317 31.8296C24.4667 33.3521 24.5 35.067 24.5 36.502V36.6421C26.6798 36.9503 28.8664 37.1498 31.0557 37.2642C31.0088 37.3255 30.974 37.3638 30.9258 37.4282C29.3286 39.5632 27.4681 42.844 26.3047 47.4497C26.2364 47.6763 26.2147 47.9143 26.241 48.1494C26.2673 48.3846 26.341 48.612 26.4576 48.8179C26.5743 49.0237 26.7315 49.2038 26.9197 49.3472C27.1079 49.4906 27.3232 49.5943 27.5527 49.6522C27.7821 49.71 28.0209 49.7207 28.2546 49.6836C28.4883 49.6465 28.712 49.5625 28.9123 49.4365C29.1126 49.3105 29.2852 49.1452 29.4198 48.9506C29.5544 48.7559 29.6482 48.5361 29.6954 48.3042C30.7387 44.1739 32.3774 41.3295 33.7286 39.5234C34.4735 38.5277 34.5897 38.5387 35 38.1528C35.4104 38.5387 35.5266 38.5277 36.2715 39.5234C37.6226 41.3295 39.2614 44.1739 40.3047 48.3042C40.3519 48.5361 40.4457 48.7559 40.5802 48.9506C40.7148 49.1452 40.8875 49.3105 41.0878 49.4365C41.2881 49.5625 41.5118 49.6465 41.7455 49.6836C41.9792 49.7207 42.218 49.71 42.4474 49.6522C42.6769 49.5943 42.8922 49.4906 43.0804 49.3472C43.2686 49.2038 43.4258 49.0237 43.5425 48.8179C43.6591 48.612 43.7328 48.3846 43.7591 48.1494C43.7854 47.9143 43.7637 47.6763 43.6954 47.4497C42.5319 42.844 40.6715 39.5632 39.0743 37.4282C39.0239 37.3609 38.9865 37.3214 38.9375 37.2573C42.3949 37.0684 45.8462 36.6447 49.2803 35.9756C50.3303 35.7831 51.2063 35.0321 51.5738 34.0171C54.1113 26.9646 54.1113 19.7893 51.5738 12.7368C51.2063 11.7218 50.3303 10.9708 49.2803 10.7783C44.8266 9.91207 40.3386 9.4475 35.8477 9.39063ZM14 19.877C9.06329 19.877 6.74003 22.3407 5.65678 24.4092C3.46753 28.6004 4.5253 34.3529 5.2603 35.4116C5.90605 36.3391 6.5413 36.8326 7.0103 37.0898C7.2518 46.5661 8.98454 49.627 14 49.627C19.1153 49.627 20.8163 46.442 21 36.502C21 33.8875 20.9021 30.2671 20.8531 28.6099C23.7091 28.5206 30.625 27.9252 30.625 24.252C30.625 19.877 25.7583 19.877 14 19.877Z" fill="#DDB725"/>
</svg>
